# Roblox 2010 R6 head - repaired watertight mesh
o Head
v 0.346385000 0.578335000 -0.229725000
v 0.250515000 0.601215000 -0.166145000
v 0.381015000 0.578335000 -0.166085000
v 0.427665000 0.513165000 -0.283625000
v 0.470415000 0.513165000 -0.205055000
v 0.481965000 0.415645000 -0.319645000
v 0.530156000 0.415645000 -0.231095000
v 0.501035000 0.300605000 -0.332295000
v 0.551125000 0.300605000 -0.240235000
v 0.501035000 -0.300605000 -0.332295000
v 0.551125000 -0.300605000 -0.240235000
v 0.481965000 -0.415645000 -0.319645000
v 0.530156000 -0.415645000 -0.231095000
v 0.427665000 -0.513165000 -0.283625000
v 0.470415000 -0.513165000 -0.205055000
v 0.346385000 -0.578325000 -0.229725000
v 0.381015000 -0.578325000 -0.166085000
v 0.250515000 -0.601215000 -0.166145000
v 0.404075000 0.578335000 -0.097405000
v 0.498875000 0.513165000 -0.120255000
v 0.562225000 0.415645000 -0.135525000
v 0.584475000 0.300605000 -0.140885000
v 0.584475000 -0.300605000 -0.140885000
v 0.562225000 -0.415645000 -0.135525000
v 0.498875000 -0.513165000 -0.120255000
v 0.404075000 -0.578325000 -0.097405000
v 0.414845000 0.578335000 -0.025755000
v 0.512185000 0.513165000 -0.031795000
v 0.577216000 0.415645000 -0.035835000
v 0.600055000 0.300605000 -0.037255000
v 0.600055000 -0.300605000 -0.037255000
v 0.577216000 -0.415645000 -0.035835000
v 0.512185000 -0.513165000 -0.031795000
v 0.414845000 -0.578325000 -0.025755000
v 0.298705000 0.601215000 0.033755000
v 0.413015000 0.578335000 0.046675000
v 0.509925000 0.513165000 0.057625000
v 0.574675000 0.415645000 0.064945000
v 0.597415000 0.300605000 0.067515000
v 0.597415000 -0.300605000 0.067515000
v 0.574675000 -0.415645000 0.064945000
v 0.509925000 -0.513165000 0.057625000
v 0.413015000 -0.578325000 0.046675000
v 0.288305000 0.601215000 0.085115000
v 0.398635000 0.578335000 0.117685000
v 0.492165000 0.513165000 0.145295000
v 0.554665000 0.415645000 0.163745000
v 0.576615000 0.300605000 0.170225000
v 0.576615000 -0.300605000 0.170225000
v 0.554665000 -0.415645000 0.163745000
v 0.492165000 -0.513165000 0.145295000
v 0.398635000 -0.578325000 0.117685000
v 0.288305000 -0.601215000 0.085115000
v 0.269145000 0.601215000 0.133885000
v 0.372146000 0.578335000 0.185115000
v 0.459465000 0.513165000 0.228555000
v 0.517805000 0.415645000 0.257575000
v 0.538295000 0.300605000 0.267765000
v 0.538295000 -0.300605000 0.267765000
v 0.517805000 -0.415645000 0.257575000
v 0.459465000 -0.513165000 0.228555000
v 0.372146000 -0.578325000 0.185115000
v 0.269145000 -0.601215000 0.133885000
v 0.334345000 0.578335000 0.246925000
v 0.412795000 0.513165000 0.304865000
v 0.465206000 0.415645000 0.343575000
v 0.483615000 0.300605000 0.357175000
v 0.483615000 -0.300605000 0.357175000
v 0.465206000 -0.415645000 0.343575000
v 0.412795000 -0.513165000 0.304865000
v 0.334345000 -0.578325000 0.246925000
v 0.207126000 0.601215000 0.217865000
v 0.286385000 0.578335000 0.301235000
v 0.353585000 0.513165000 0.371915000
v 0.398486000 0.415645000 0.419145000
v 0.414245000 0.300605000 0.435725000
v 0.414245000 -0.300605000 0.435725000
v 0.398486000 -0.415645000 0.419145000
v 0.353585000 -0.513165000 0.371915000
v 0.286385000 -0.578325000 0.301235000
v 0.207126000 -0.601215000 0.217865000
v 0.229725000 0.578335000 0.346385000
v 0.283625000 0.513165000 0.427665000
v 0.319646000 0.415645000 0.481965000
v 0.332296000 0.300605000 0.501035000
v 0.332296000 -0.300605000 0.501035000
v 0.319646000 -0.415645000 0.481965000
v 0.283625000 -0.513165000 0.427665000
v 0.166145000 -0.601215000 0.250515000
v 0.133785000 -0.601215000 0.269195000
v 0.090925000 -0.601215000 0.286525000
v 0.036565000 -0.601215000 0.298375000
v -0.091835000 -0.601215000 0.286235000
v -0.149765000 -0.601215000 0.260635000
v -0.195235000 -0.601215000 0.228575000
v -0.250515000 -0.601215000 0.166145000
v -0.269195000 -0.601215000 0.133785000
v -0.286525000 -0.601215000 0.090925000
v -0.298375000 -0.601215000 0.036565000
v -0.299415000 -0.601215000 -0.026765000
v -0.228575000 -0.601215000 -0.195235000
v -0.195935000 -0.601215000 -0.227975000
v -0.090925000 -0.601215000 -0.286525000
v -0.036564000 -0.601215000 -0.298375000
v 0.091835000 -0.601215000 -0.286235000
v 0.195235000 -0.601215000 -0.228575000
v 0.275565000 -0.601215000 -0.120115000
v 0.292235000 -0.601215000 -0.070445000
v 0.300025000 -0.601215000 -0.018625000
v 0.298705000 -0.601215000 0.033755000
v 0.241805000 -0.601215000 0.178585000
v -0.229725000 0.578335000 -0.346385000
v -0.166145000 0.601215000 -0.250515000
v -0.120114000 0.601215000 -0.275565000
v -0.166085000 0.578335000 -0.381015000
v -0.283625000 0.513165000 -0.427665000
v -0.205055000 0.513165000 -0.470415000
v -0.319645000 0.415645000 -0.481965000
v -0.231094000 0.415645000 -0.530155000
v -0.332285000 0.300605000 -0.501035000
v -0.240235000 0.300605000 -0.551125000
v -0.332285000 -0.300605000 -0.501035000
v -0.240235000 -0.300605000 -0.551125000
v -0.319645000 -0.415645000 -0.481965000
v -0.231094000 -0.415645000 -0.530155000
v -0.283625000 -0.513165000 -0.427665000
v -0.205055000 -0.513165000 -0.470415000
v -0.229725000 -0.578325000 -0.346385000
v -0.166085000 -0.578325000 -0.381015000
v -0.166145000 -0.601215000 -0.250515000
v -0.133785000 -0.601215000 -0.269195000
v -0.070444000 0.601215000 -0.292235000
v -0.097395000 0.578335000 -0.404075000
v -0.120255000 0.513165000 -0.498875000
v -0.135525000 0.415645000 -0.562225000
v -0.140885000 0.300605000 -0.584475000
v -0.140885000 -0.300605000 -0.584475000
v -0.135525000 -0.415645000 -0.562225000
v -0.120255000 -0.513165000 -0.498875000
v -0.097395000 -0.578325000 -0.404075000
v -0.018625000 0.601215000 -0.300025000
v -0.025755000 0.578335000 -0.414845000
v -0.031795000 0.513165000 -0.512185000
v -0.035835000 0.415645000 -0.577215000
v -0.037254000 0.300605000 -0.600055000
v -0.037254000 -0.300605000 -0.600055000
v -0.035835000 -0.415645000 -0.577215000
v -0.031795000 -0.513165000 -0.512185000
v -0.025755000 -0.578325000 -0.414845000
v 0.033755000 0.601215000 -0.298705000
v 0.046675000 0.578335000 -0.413015000
v 0.057625000 0.513165000 -0.509925000
v 0.064945000 0.415645000 -0.574675000
v 0.067515000 0.300605000 -0.597415000
v 0.067515000 -0.300605000 -0.597415000
v 0.064945000 -0.415645000 -0.574675000
v 0.057625000 -0.513165000 -0.509925000
v 0.046675000 -0.578325000 -0.413015000
v 0.026765000 -0.601215000 -0.299415000
v 0.085116000 0.601215000 -0.288305000
v 0.117685000 0.578335000 -0.398635000
v 0.145295000 0.513165000 -0.492165000
v 0.163746000 0.415645000 -0.554665000
v 0.170225000 0.300605000 -0.576615000
v 0.170225000 -0.300605000 -0.576615000
v 0.163746000 -0.415645000 -0.554665000
v 0.145295000 -0.513165000 -0.492165000
v 0.117685000 -0.578325000 -0.398635000
v 0.133885000 0.601215000 -0.269145000
v 0.185115000 0.578335000 -0.372145000
v 0.228555000 0.513165000 -0.459465000
v 0.257575000 0.415645000 -0.517805000
v 0.267765000 0.300605000 -0.538295000
v 0.267765000 -0.300605000 -0.538295000
v 0.257575000 -0.415645000 -0.517805000
v 0.228555000 -0.513165000 -0.459465000
v 0.185115000 -0.578325000 -0.372145000
v 0.149765000 -0.601215000 -0.260645000
v 0.246925000 0.578335000 -0.334345000
v 0.304865000 0.513165000 -0.412795000
v 0.343575000 0.415645000 -0.465205000
v 0.357175000 0.300605000 -0.483615000
v 0.357175000 -0.300605000 -0.483615000
v 0.343575000 -0.415645000 -0.465205000
v 0.304865000 -0.513165000 -0.412795000
v 0.246925000 -0.578325000 -0.334345000
v 0.217865000 0.601215000 -0.207125000
v 0.301235000 0.578335000 -0.286385000
v 0.371915000 0.513165000 -0.353585000
v 0.419145000 0.415645000 -0.398485000
v 0.435725000 0.300605000 -0.414245000
v 0.435725000 -0.300605000 -0.414245000
v 0.419145000 -0.415645000 -0.398485000
v 0.371915000 -0.513165000 -0.353585000
v 0.301235000 -0.578325000 -0.286385000
v 0.227975000 -0.601215000 -0.195935000
v -0.381014000 0.578335000 0.166085000
v -0.470415000 0.513165000 0.205055000
v -0.481964000 0.415645000 0.319645000
v -0.530155000 0.415645000 0.231095000
v -0.501035000 0.300605000 0.332285000
v -0.551124000 0.300605000 0.240235000
v -0.501035000 -0.300605000 0.332285000
v -0.551124000 -0.300605000 0.240235000
v -0.481964000 -0.415645000 0.319645000
v -0.530155000 -0.415645000 0.231095000
v -0.470415000 -0.513165000 0.205055000
v -0.346385000 -0.578325000 0.229725000
v -0.381014000 -0.578325000 0.166085000
v -0.292235000 0.601215000 0.070445000
v -0.404065000 0.578335000 0.097395000
v -0.498875000 0.513165000 0.120255000
v -0.562225000 0.415645000 0.135525000
v -0.584475000 0.300605000 0.140885000
v -0.584475000 -0.300605000 0.140885000
v -0.562225000 -0.415645000 0.135525000
v -0.498875000 -0.513165000 0.120255000
v -0.404065000 -0.578325000 0.097395000
v -0.300025000 0.601215000 0.018625000
v -0.414845000 0.578335000 0.025755000
v -0.512185000 0.513165000 0.031795000
v -0.577215000 0.415645000 0.035835000
v -0.600055000 0.300605000 0.037255000
v -0.600055000 -0.300605000 0.037255000
v -0.577215000 -0.415645000 0.035835000
v -0.512185000 -0.513165000 0.031795000
v -0.414845000 -0.578325000 0.025755000
v -0.298705000 0.601215000 -0.033755000
v -0.413015000 0.578335000 -0.046675000
v -0.509925000 0.513165000 -0.057625000
v -0.574675000 0.415645000 -0.064945000
v -0.597405000 0.300605000 -0.067515000
v -0.597405000 -0.300605000 -0.067515000
v -0.574675000 -0.415645000 -0.064945000
v -0.509925000 -0.513165000 -0.057625000
v -0.413015000 -0.578325000 -0.046675000
v -0.288304000 0.601215000 -0.085115000
v -0.398635000 0.578335000 -0.117685000
v -0.492165000 0.513165000 -0.145295000
v -0.554665000 0.415645000 -0.163745000
v -0.576605000 0.300605000 -0.170225000
v -0.576605000 -0.300605000 -0.170225000
v -0.554665000 -0.415645000 -0.163745000
v -0.492165000 -0.513165000 -0.145295000
v -0.398635000 -0.578325000 -0.117685000
v -0.286235000 -0.601215000 -0.091835000
v -0.269145000 0.601215000 -0.133885000
v -0.372145000 0.578335000 -0.185115000
v -0.459455000 0.513165000 -0.228555000
v -0.517805000 0.415645000 -0.257575000
v -0.538295000 0.300605000 -0.267765000
v -0.538295000 -0.300605000 -0.267765000
v -0.517805000 -0.415645000 -0.257575000
v -0.459455000 -0.513165000 -0.228555000
v -0.372145000 -0.578325000 -0.185115000
v -0.260635000 -0.601215000 -0.149765000
v -0.241804000 0.601215000 -0.178585000
v -0.334345000 0.578335000 -0.246925000
v -0.412794000 0.513165000 -0.304865000
v -0.465205000 0.415645000 -0.343575000
v -0.483615000 0.300605000 -0.357175000
v -0.483615000 -0.300605000 -0.357175000
v -0.465205000 -0.415645000 -0.343575000
v -0.412794000 -0.513165000 -0.304865000
v -0.334345000 -0.578325000 -0.246925000
v -0.286384000 0.578335000 -0.301235000
v -0.353585000 0.513165000 -0.371915000
v -0.398475000 0.415645000 -0.419145000
v -0.414245000 0.300605000 -0.435725000
v -0.414245000 -0.300605000 -0.435725000
v -0.398475000 -0.415645000 -0.419145000
v -0.353585000 -0.513165000 -0.371915000
v -0.286384000 -0.578325000 -0.301235000
v -0.275565000 0.601215000 0.120115000
v -0.250515000 0.601215000 0.166145000
v -0.207125000 0.601215000 -0.217865000
v -0.149765000 0.601215000 0.260635000
v -0.091835000 0.601215000 0.286235000
v -0.026765000 0.601215000 0.299415000
v 0.178585000 0.601215000 -0.241805000
v 0.166145000 0.601215000 0.250515000
v 0.241805000 0.601215000 0.178585000
v 0.300025000 0.601215000 -0.018625000
v 0.292235000 0.601215000 -0.070445000
v 0.275565000 0.601215000 -0.120115000
v 0.133785000 0.601215000 0.269195000
v 0.166085000 0.578335000 0.381015000
v 0.205055000 0.513165000 0.470415000
v 0.231095000 0.415645000 0.530155000
v 0.240235000 0.300605000 0.551125000
v 0.240235000 -0.300605000 0.551125000
v 0.231095000 -0.415645000 0.530155000
v 0.205055000 -0.513165000 0.470415000
v 0.229725000 -0.578325000 0.346385000
v 0.166085000 -0.578325000 0.381015000
v 0.090925000 0.601215000 0.286525000
v 0.097406000 0.578335000 0.404065000
v 0.120255000 0.513165000 0.498875000
v 0.135525000 0.415645000 0.562225000
v 0.140885000 0.300605000 0.584475000
v 0.140885000 -0.300605000 0.584475000
v 0.135525000 -0.415645000 0.562225000
v 0.120255000 -0.513165000 0.498875000
v 0.097406000 -0.578325000 0.404065000
v 0.036565000 0.601215000 0.298375000
v 0.025756000 0.578335000 0.414845000
v 0.031795000 0.513165000 0.512185000
v 0.035835000 0.415645000 0.577215000
v 0.037255000 0.300605000 0.600055000
v 0.037255000 -0.300605000 0.600055000
v 0.035835000 -0.415645000 0.577215000
v 0.031795000 -0.513165000 0.512185000
v 0.025756000 -0.578325000 0.414845000
v -0.046675000 0.578335000 0.413015000
v -0.057624000 0.513165000 0.509925000
v -0.064945000 0.415645000 0.574675000
v -0.067515000 0.300605000 0.597405000
v -0.067515000 -0.300605000 0.597405000
v -0.064945000 -0.415645000 0.574675000
v -0.057624000 -0.513165000 0.509925000
v -0.046675000 -0.578325000 0.413015000
v -0.026765000 -0.601215000 0.299415000
v -0.117685000 0.578335000 0.398635000
v -0.145295000 0.513165000 0.492165000
v -0.163745000 0.415645000 0.554665000
v -0.170225000 0.300605000 0.576615000
v -0.170225000 -0.300605000 0.576615000
v -0.163745000 -0.415645000 0.554665000
v -0.145295000 -0.513165000 0.492165000
v -0.117685000 -0.578325000 0.398635000
v -0.185115000 0.578335000 0.372145000
v -0.228555000 0.513165000 0.459455000
v -0.257575000 0.415645000 0.517805000
v -0.267764000 0.300605000 0.538295000
v -0.267764000 -0.300605000 0.538295000
v -0.257575000 -0.415645000 0.517805000
v -0.228555000 -0.513165000 0.459455000
v -0.185115000 -0.578325000 0.372145000
v -0.195235000 0.601215000 0.228575000
v -0.246925000 0.578335000 0.334345000
v -0.304865000 0.513165000 0.412795000
v -0.343575000 0.415645000 0.465205000
v -0.357175000 0.300605000 0.483615000
v -0.357175000 -0.300605000 0.483615000
v -0.343575000 -0.415645000 0.465205000
v -0.304865000 -0.513165000 0.412795000
v -0.246925000 -0.578325000 0.334345000
v -0.227975000 0.601215000 0.195935000
v -0.301235000 0.578335000 0.286385000
v -0.371915000 0.513165000 0.353585000
v -0.419145000 0.415645000 0.398475000
v -0.435725000 0.300605000 0.414245000
v -0.435725000 -0.300605000 0.414245000
v -0.419145000 -0.415645000 0.398475000
v -0.371915000 -0.513165000 0.353585000
v -0.301235000 -0.578325000 0.286385000
v -0.227975000 -0.601215000 0.195935000
v -0.346385000 0.578335000 0.229725000
v -0.427665000 0.513165000 0.283625000
v -0.427665000 -0.513165000 0.283625000
vt 0.406798275 0.198356411
vt 0.406797539 0.147581544
vt 0.434576505 0.198356636
vt 0.406799690 0.250000657
vt 0.434576389 0.249999851
vt 0.406797729 0.301639725
vt 0.434576703 0.301641325
vt 0.406797168 0.352416836
vt 0.434576796 0.352416058
vt 0.406797168 0.647583164
vt 0.434576796 0.647583942
vt 0.406797729 0.698360275
vt 0.434576703 0.698358675
vt 0.406799690 0.749999343
vt 0.434576389 0.750000149
vt 0.406798275 0.801640980
vt 0.434576505 0.801640756
vt 0.406797539 0.852418456
vt 0.462352865 0.198359990
vt 0.462353522 0.249999762
vt 0.462353701 0.301639903
vt 0.462354573 0.352417465
vt 0.462354573 0.647582535
vt 0.462353701 0.698360097
vt 0.462353522 0.750000238
vt 0.462352865 0.801637402
vt 0.490131781 0.198357961
vt 0.490132772 0.250001837
vt 0.490131932 0.301639560
vt 0.490131377 0.352416466
vt 0.490131377 0.647583534
vt 0.490131932 0.698360440
vt 0.490132772 0.749998163
vt 0.490131781 0.801639430
vt 0.517909244 0.147583060
vt 0.517910180 0.198358071
vt 0.517909613 0.250001761
vt 0.517910381 0.301641083
vt 0.517910411 0.352418054
vt 0.517910411 0.647581946
vt 0.517910381 0.698358917
vt 0.517909613 0.749998239
vt 0.517910180 0.801639320
vt 0.545688740 0.147583242
vt 0.545687920 0.198357930
vt 0.545687349 0.249999609
vt 0.545687084 0.301640289
vt 0.545687096 0.352417782
vt 0.545687096 0.647582218
vt 0.545687084 0.698359711
vt 0.545687349 0.750000391
vt 0.545687920 0.801639462
vt 0.545688740 0.852416758
vt 0.573466242 0.147583163
vt 0.573463707 0.198358186
vt 0.573465173 0.250002163
vt 0.573465053 0.301640562
vt 0.573464468 0.352417463
vt 0.573464468 0.647582537
vt 0.573465053 0.698359438
vt 0.573465173 0.749997837
vt 0.573463707 0.801639206
vt 0.573466242 0.852416837
vt 0.601241977 0.198357455
vt 0.601242486 0.250001228
vt 0.601243031 0.301639097
vt 0.601243914 0.352417084
vt 0.601243914 0.647582916
vt 0.601243031 0.698360903
vt 0.601242486 0.749998772
vt 0.601241977 0.801639936
vt 0.629020794 0.147584653
vt 0.629021218 0.198357612
vt 0.629020248 0.250001451
vt 0.629020496 0.301642078
vt 0.629021225 0.352416687
vt 0.629021225 0.647583313
vt 0.629020496 0.698357922
vt 0.629020248 0.749998549
vt 0.629021218 0.801639780
vt 0.629020794 0.852415347
vt 0.656798275 0.198356411
vt 0.656799690 0.250000657
vt 0.656797500 0.301639869
vt 0.656796947 0.352416953
vt 0.656796947 0.647583047
vt 0.656797500 0.698360131
vt 0.656799690 0.749999343
vt 0.656797539 0.852418456
vt 0.676592952 0.852416731
vt 0.701093995 0.852417043
vt 0.730592784 0.852416544
vt 0.799411676 0.852416894
vt 0.833006549 0.852419701
vt 0.862505438 0.852417533
vt 0.906797539 0.852418456
vt 0.926592952 0.852416731
vt 0.951093995 0.852417043
vt 0.980592784 0.852416544
vt 0.014189302 0.852415792
vt 0.112505438 0.852417533
vt 0.137006434 0.852417611
vt 0.201093995 0.852417043
vt 0.230593309 0.852416595
vt 0.299411676 0.852416894
vt 0.362505438 0.852417533
vt 0.434578539 0.852417218
vt 0.462352976 0.852417140
vt 0.490132616 0.852418480
vt 0.517909244 0.852416940
vt 0.601243636 0.852418220
vt 0.156798275 0.198356411
vt 0.156797539 0.147581544
vt 0.184579024 0.147582612
vt 0.184576505 0.198356636
vt 0.156799690 0.250000657
vt 0.184576389 0.249999851
vt 0.156797729 0.301639725
vt 0.184576845 0.301640982
vt 0.156799374 0.352415665
vt 0.184576796 0.352416058
vt 0.156799374 0.647584335
vt 0.184576796 0.647583942
vt 0.156797729 0.698360275
vt 0.184576845 0.698359018
vt 0.156799690 0.749999343
vt 0.184576389 0.750000149
vt 0.156798275 0.801640980
vt 0.184576505 0.801640756
vt 0.156797539 0.852418456
vt 0.176592952 0.852416731
vt 0.212353491 0.147582760
vt 0.212356588 0.198359139
vt 0.212353522 0.249999762
vt 0.212353701 0.301639903
vt 0.212354573 0.352417465
vt 0.212354573 0.647582535
vt 0.212353701 0.698360097
vt 0.212353522 0.750000238
vt 0.212356588 0.801638253
vt 0.240132616 0.147581520
vt 0.240131781 0.198357961
vt 0.240132772 0.250001837
vt 0.240131915 0.301639300
vt 0.240131641 0.352416453
vt 0.240131641 0.647583547
vt 0.240131915 0.698360700
vt 0.240132772 0.749998163
vt 0.240131781 0.801639430
vt 0.267909244 0.147583060
vt 0.267910180 0.198358071
vt 0.267909613 0.250001761
vt 0.267910381 0.301641083
vt 0.267910411 0.352418054
vt 0.267910411 0.647581946
vt 0.267910381 0.698358917
vt 0.267909613 0.749998239
vt 0.267910180 0.801639320
vt 0.264189302 0.852415792
vt 0.295689248 0.147583362
vt 0.295687920 0.198357930
vt 0.295687349 0.249999609
vt 0.295687348 0.301640363
vt 0.295687096 0.352417782
vt 0.295687096 0.647582218
vt 0.295687348 0.698359637
vt 0.295687349 0.750000391
vt 0.295687920 0.801639462
vt 0.323466242 0.147583163
vt 0.323463877 0.198357861
vt 0.323465173 0.250002163
vt 0.323465053 0.301640562
vt 0.323464468 0.352417463
vt 0.323464468 0.647582537
vt 0.323465053 0.698359438
vt 0.323465173 0.749997837
vt 0.323463877 0.801639531
vt 0.333003911 0.852416029
vt 0.351241977 0.198357455
vt 0.351242486 0.250001228
vt 0.351243194 0.301638887
vt 0.351243914 0.352417084
vt 0.351243914 0.647582916
vt 0.351243194 0.698361113
vt 0.351242486 0.749998772
vt 0.351241977 0.801639936
vt 0.379021178 0.147584361
vt 0.379021218 0.198357612
vt 0.379020248 0.250001451
vt 0.379020696 0.301641899
vt 0.379021225 0.352416687
vt 0.379021225 0.647583313
vt 0.379020696 0.698358101
vt 0.379020248 0.749998549
vt 0.379021218 0.801639780
vt 0.387006434 0.852417611
vt 0.934576352 0.198356303
vt 0.934576389 0.249999851
vt 0.906797577 0.301639507
vt 0.934576593 0.301641086
vt 0.906799374 0.352415665
vt 0.934576691 0.352415864
vt 0.906799374 0.647584335
vt 0.934576691 0.647584136
vt 0.906797577 0.698360493
vt 0.934576593 0.698358914
vt 0.934576389 0.750000149
vt 0.906798275 0.801640980
vt 0.934576352 0.801641089
vt 0.962352976 0.147582860
vt 0.962355691 0.198355611
vt 0.962353522 0.249999762
vt 0.962353701 0.301639903
vt 0.962354573 0.352417465
vt 0.962354573 0.647582535
vt 0.962353701 0.698360097
vt 0.962353522 0.750000238
vt 0.962355691 0.801641781
vt 0.990132616 0.147581520
vt 0.990131781 0.198357961
vt 0.990132772 0.250001837
vt 0.990131915 0.301639300
vt 0.990131377 0.352416466
vt 0.990131377 0.647583534
vt 0.990131915 0.698360700
vt 0.990132772 0.749998163
vt 0.990131781 0.801639430
vt 0.017909244 0.147583060
vt 0.017910180 0.198358071
vt 0.017909613 0.250001761
vt 0.017910381 0.301641083
vt 0.017910708 0.352415950
vt 0.017910708 0.647584050
vt 0.017910381 0.698358917
vt 0.017909613 0.749998239
vt 0.017910180 0.801639320
vt 0.045688890 0.147582836
vt 0.045687920 0.198357930
vt 0.045687349 0.249999609
vt 0.045687084 0.301640289
vt 0.045687846 0.352415750
vt 0.045687846 0.647584250
vt 0.045687084 0.698359711
vt 0.045687349 0.750000391
vt 0.045687920 0.801639462
vt 0.049411676 0.852416894
vt 0.073466242 0.147583163
vt 0.073463877 0.198357861
vt 0.073466555 0.249999386
vt 0.073465053 0.301640562
vt 0.073464468 0.352417463
vt 0.073464468 0.647582537
vt 0.073465053 0.698359438
vt 0.073466555 0.750000614
vt 0.073463877 0.801639531
vt 0.083006549 0.852419701
vt 0.101243950 0.147581439
vt 0.101241977 0.198357455
vt 0.101242671 0.250000978
vt 0.101243194 0.301638887
vt 0.101243914 0.352417084
vt 0.101243914 0.647582916
vt 0.101243194 0.698361113
vt 0.101242671 0.749999022
vt 0.101241977 0.801639936
vt 0.129021495 0.198357362
vt 0.129020248 0.250001451
vt 0.129022690 0.301640101
vt 0.129021225 0.352416687
vt 0.129021225 0.647583313
vt 0.129022690 0.698359899
vt 0.129020248 0.749998549
vt 0.129021495 0.801640030
vt 0.934578539 0.147582782
vt 0.906797539 0.147581544
vt 0.129021178 0.147584361
vt 0.833006549 0.147580299
vt 0.799411676 0.147583106
vt 0.764189302 0.147584208
vt 0.351243636 0.147581780
vt 0.656797539 0.147581544
vt 0.601243636 0.147581780
vt 0.490132616 0.147581520
vt 0.462352976 0.147582860
vt 0.434578539 0.147582782
vt 0.676592952 0.147583269
vt 0.684576505 0.198356636
vt 0.684576389 0.249999851
vt 0.684576593 0.301641086
vt 0.684576796 0.352416058
vt 0.684576796 0.647583942
vt 0.684576593 0.698358914
vt 0.684576389 0.750000149
vt 0.656798275 0.801640980
vt 0.684576505 0.801640756
vt 0.701093995 0.147582957
vt 0.712351596 0.198356546
vt 0.712353522 0.249999762
vt 0.712353701 0.301639903
vt 0.712354573 0.352417465
vt 0.712354573 0.647582535
vt 0.712353701 0.698360097
vt 0.712353522 0.750000238
vt 0.712351596 0.801640845
vt 0.730592784 0.147583456
vt 0.740131399 0.198357984
vt 0.740132772 0.250001837
vt 0.740131915 0.301639300
vt 0.740131377 0.352416466
vt 0.740131377 0.647583534
vt 0.740131915 0.698360700
vt 0.740132772 0.749998163
vt 0.740131399 0.801639408
vt 0.767910180 0.198358071
vt 0.767909304 0.250001727
vt 0.767910381 0.301641083
vt 0.767910708 0.352415950
vt 0.767910708 0.647584050
vt 0.767910381 0.698358917
vt 0.767909304 0.749998273
vt 0.767910180 0.801639320
vt 0.764189302 0.852415792
vt 0.795687920 0.198357930
vt 0.795687349 0.249999609
vt 0.795687084 0.301640289
vt 0.795687096 0.352417782
vt 0.795687096 0.647582218
vt 0.795687084 0.698359711
vt 0.795687349 0.750000391
vt 0.795687920 0.801639462
vt 0.823463877 0.198357861
vt 0.823466555 0.249999386
vt 0.823465053 0.301640562
vt 0.823464231 0.352417369
vt 0.823464231 0.647582631
vt 0.823465053 0.698359438
vt 0.823466555 0.750000614
vt 0.823463877 0.801639531
vt 0.862505438 0.147582467
vt 0.851241977 0.198357455
vt 0.851242486 0.250001228
vt 0.851243194 0.301638887
vt 0.851243914 0.352417084
vt 0.851243914 0.647582916
vt 0.851243194 0.698361113
vt 0.851242486 0.749998772
vt 0.851241977 0.801639936
vt 0.887006434 0.147582389
vt 0.879021218 0.198357612
vt 0.879020248 0.250001451
vt 0.879022690 0.301640101
vt 0.879021225 0.352416687
vt 0.879021225 0.647583313
vt 0.879022690 0.698359899
vt 0.879020248 0.749998549
vt 0.879021218 0.801639780
vt 0.887006434 0.852417611
vt 0.906798275 0.198356411
vt 0.906799690 0.250000657
vt 0.906799690 0.749999343
vn 0.486359804 0.812041217 -0.322557287
vn 0.372692227 0.894430104 -0.247174621
vn 0.534983578 0.812040806 -0.233200130
vn 0.589292327 0.707105321 -0.390815326
vn 0.648200465 0.707107111 -0.282552101
vn 0.676730303 0.583609944 -0.448815698
vn 0.744390404 0.583605862 -0.324479776
vn 0.745393541 0.447212322 -0.494357773
vn 0.819916820 0.447214508 -0.357401165
vn 0.745393541 -0.447212322 -0.494357773
vn 0.819916820 -0.447214508 -0.357401165
vn 0.676730303 -0.583609944 -0.448815698
vn 0.744390404 -0.583605862 -0.324479776
vn 0.589292327 -0.707105321 -0.390815326
vn 0.648200465 -0.707107111 -0.282552101
vn 0.486365349 -0.812036435 -0.322560965
vn 0.534989678 -0.812036024 -0.233202789
vn 0.372692227 -0.894430104 -0.247174621
vn 0.567357853 0.812034657 -0.136765431
vn 0.687416638 0.707107309 -0.165703408
vn 0.789423295 0.583609490 -0.190291417
vn 0.869524422 0.447210554 -0.209594847
vn 0.869524422 -0.447210554 -0.209594847
vn 0.789423295 -0.583609490 -0.190291417
vn 0.687416638 -0.707107309 -0.165703408
vn 0.567364322 -0.812029874 -0.136766991
vn 0.582482575 0.812038375 -0.036162515
vn 0.705752334 0.707102700 -0.043811114
vn 0.810473456 0.583610364 -0.050316201
vn 0.892708416 0.447213361 -0.055424673
vn 0.892708416 -0.447213361 -0.055424673
vn 0.810473456 -0.583610364 -0.050316201
vn 0.705752334 -0.707102700 -0.043811114
vn 0.582489216 -0.812033593 -0.036162928
vn 0.444383637 0.894427975 0.050217337
vn 0.579912933 0.812038174 0.065536206
vn 0.702638391 0.707102868 0.079402927
vn 0.806900249 0.583606480 0.091189171
vn 0.888771988 0.447208897 0.100441805
vn 0.888771988 -0.447208897 0.100441805
vn 0.806900249 -0.583606480 0.091189171
vn 0.702638391 -0.707102868 0.079402927
vn 0.579919545 -0.812033391 0.065536953
vn 0.428911427 0.894427718 0.126625609
vn 0.559722203 0.812038433 0.165241154
vn 0.678171029 0.707107649 0.200206962
vn 0.778806943 0.583608506 0.229914891
vn 0.857829378 0.447209664 0.253243509
vn 0.857829378 -0.447209664 0.253243509
vn 0.778806943 -0.583608506 0.229914891
vn 0.678171029 -0.707107649 0.200206962
vn 0.559728585 -0.812033650 0.165243038
vn 0.428911427 -0.894427718 0.126625609
vn 0.400407139 0.894427829 0.199180775
vn 0.522528776 0.812037963 0.259919264
vn 0.633107499 0.707101977 0.314931245
vn 0.727050828 0.583607809 0.361661469
vn 0.800822365 0.447210558 0.398354435
vn 0.800822365 -0.447210558 0.398354435
vn 0.727050828 -0.583607809 0.361661469
vn 0.633107499 -0.707101977 0.314931245
vn 0.522534734 -0.812033181 0.259922228
vn 0.400407139 -0.894427829 0.199180775
vn 0.469453311 0.812039303 0.346707021
vn 0.568801492 0.707104054 0.420081801
vn 0.653200671 0.583611546 0.482417296
vn 0.719476553 0.447211623 0.531371107
vn 0.719476553 -0.447211623 0.531371107
vn 0.653200671 -0.583611546 0.482417296
vn 0.568801492 -0.707104054 0.420081801
vn 0.469458664 -0.812034521 0.346710974
vn 0.308140724 0.894425737 0.324117102
vn 0.402112605 0.812039016 0.422963461
vn 0.487214076 0.707103558 0.512471466
vn 0.559511121 0.583603940 0.588518263
vn 0.616275980 0.447212739 0.648231967
vn 0.616275980 -0.447212739 0.648231967
vn 0.559511121 -0.583603940 0.588518263
vn 0.487214076 -0.707103558 0.512471466
vn 0.402117190 -0.812034234 0.422968283
vn 0.308140724 -0.894425737 0.324117102
vn 0.322557287 0.812041217 0.486359804
vn 0.390815326 0.707105321 0.589292327
vn 0.448816819 0.583609576 0.676729876
vn 0.494358897 0.447211993 0.745392993
vn 0.494358897 -0.447211993 0.745392993
vn 0.448816819 -0.583609576 0.676729876
vn 0.390815326 -0.707105321 0.589292327
vn 0.247174621 -0.894430104 0.372692227
vn 0.199031972 -0.894427681 0.400481458
vn 0.135269208 -0.894428119 0.426263511
vn 0.054397742 -0.894427418 0.443892419
vn -0.136622984 -0.894427910 0.425831978
vn -0.222806461 -0.894431854 0.387748553
vn -0.290451516 -0.894428808 0.340051504
vn -0.372692227 -0.894430104 0.247174621
vn -0.400481458 -0.894427681 0.199031972
vn -0.426263511 -0.894428119 0.135269208
vn -0.443892419 -0.894427418 0.054397742
vn -0.445439101 -0.894426361 -0.039818237
vn -0.340051504 -0.894428808 -0.290451516
vn -0.291492943 -0.894428917 -0.339158924
vn -0.135269208 -0.894428119 -0.426263511
vn -0.054396259 -0.894427490 -0.443892455
vn 0.136622984 -0.894427910 -0.425831978
vn 0.290451516 -0.894428808 -0.340051504
vn 0.409958422 -0.894428365 -0.178695247
vn 0.434758350 -0.894428256 -0.104801109
vn 0.446348481 -0.894430138 -0.027708493
vn 0.444383637 -0.894427975 0.050217337
vn 0.359734190 -0.894429773 0.265681563
vn -0.322557287 0.812041217 -0.486359804
vn -0.247174621 0.894430104 -0.372692227
vn -0.178693807 0.894428603 -0.409958531
vn -0.233200130 0.812040806 -0.534983578
vn -0.390815326 0.707105321 -0.589292327
vn -0.282552101 0.707107111 -0.648200465
vn -0.448815698 0.583609944 -0.676730303
vn -0.324478859 0.583606738 -0.744390117
vn -0.494346532 0.447215611 -0.745399023
vn -0.357401165 0.447214508 -0.819916820
vn -0.494346532 -0.447215611 -0.745399023
vn -0.357401165 -0.447214508 -0.819916820
vn -0.448815698 -0.583609944 -0.676730303
vn -0.324478859 -0.583606738 -0.744390117
vn -0.390815326 -0.707105321 -0.589292327
vn -0.282552101 -0.707107111 -0.648200465
vn -0.322560965 -0.812036435 -0.486365349
vn -0.233202789 -0.812036024 -0.534989678
vn -0.247174621 -0.894430104 -0.372692227
vn -0.199031972 -0.894427681 -0.400481458
vn -0.104799637 0.894428395 -0.434758418
vn -0.136751653 0.812036216 -0.567358942
vn -0.165703408 0.707107309 -0.687416638
vn -0.190291417 0.583609490 -0.789423295
vn -0.209594847 0.447210554 -0.869524422
vn -0.209594847 -0.447210554 -0.869524422
vn -0.190291417 -0.583609490 -0.789423295
vn -0.165703408 -0.707107309 -0.687416638
vn -0.136753212 -0.812031434 -0.567365411
vn -0.027708493 0.894430138 -0.446348481
vn -0.036162515 0.812038375 -0.582482575
vn -0.043811114 0.707102700 -0.705752334
vn -0.050316258 0.583611028 -0.810472974
vn -0.055423190 0.447213398 -0.892708489
vn -0.055423190 -0.447213398 -0.892708489
vn -0.050316258 -0.583611028 -0.810472974
vn -0.043811114 -0.707102700 -0.705752334
vn -0.036162928 -0.812033593 -0.582489216
vn 0.050217337 0.894427975 -0.444383637
vn 0.065536206 0.812038174 -0.579912933
vn 0.079402927 0.707102868 -0.702638391
vn 0.091189171 0.583606480 -0.806900249
vn 0.100441805 0.447208897 -0.888771988
vn 0.100441805 -0.447208897 -0.888771988
vn 0.091189171 -0.583606480 -0.806900249
vn 0.079402927 -0.707102868 -0.702638391
vn 0.065536953 -0.812033391 -0.579919545
vn 0.039818237 -0.894426361 -0.445439101
vn 0.126627072 0.894427550 -0.428911346
vn 0.165241154 0.812038433 -0.559722203
vn 0.200206962 0.707107649 -0.678171029
vn 0.229916221 0.583608317 -0.778806692
vn 0.253243509 0.447209664 -0.857829378
vn 0.253243509 -0.447209664 -0.857829378
vn 0.229916221 -0.583608317 -0.778806692
vn 0.200206962 -0.707107649 -0.678171029
vn 0.165243038 -0.812033650 -0.559728585
vn 0.199180775 0.894427829 -0.400407139
vn 0.259919455 0.812038559 -0.522527756
vn 0.314931245 0.707101977 -0.633107499
vn 0.361661469 0.583607809 -0.727050828
vn 0.398354435 0.447210558 -0.800822365
vn 0.398354435 -0.447210558 -0.800822365
vn 0.361661469 -0.583607809 -0.727050828
vn 0.314931245 -0.707101977 -0.633107499
vn 0.259922418 -0.812033777 -0.522533714
vn 0.222805176 -0.894426694 -0.387761193
vn 0.346707021 0.812039303 -0.469453311
vn 0.420081801 0.707104054 -0.568801492
vn 0.482417738 0.583612081 -0.653199866
vn 0.531371107 0.447211623 -0.719476553
vn 0.531371107 -0.447211623 -0.719476553
vn 0.482417738 -0.583612081 -0.653199866
vn 0.420081801 -0.707104054 -0.568801492
vn 0.346710974 -0.812034521 -0.469458664
vn 0.324117250 0.894426147 -0.308139377
vn 0.422963461 0.812039016 -0.402112605
vn 0.512471466 0.707103558 -0.487214076
vn 0.588518726 0.583604399 -0.559510156
vn 0.648231967 0.447212739 -0.616275980
vn 0.648231967 -0.447212739 -0.616275980
vn 0.588518726 -0.583604399 -0.559510156
vn 0.512471466 -0.707103558 -0.487214076
vn 0.422968283 -0.812034234 -0.402117190
vn 0.339158924 -0.894428917 -0.291492943
vn -0.534982576 0.812041416 0.233200305
vn -0.648200465 0.707107111 0.282552101
vn -0.676729542 0.583610499 0.448816124
vn -0.744389777 0.583606472 0.324480115
vn -0.745399023 0.447215611 0.494346532
vn -0.819916332 0.447215053 0.357401601
vn -0.745399023 -0.447215611 0.494346532
vn -0.819916332 -0.447215053 0.357401601
vn -0.676729542 -0.583610499 0.448816124
vn -0.744389777 -0.583606472 0.324480115
vn -0.648200465 -0.707107111 0.282552101
vn -0.486365349 -0.812036435 0.322560965
vn -0.534988676 -0.812036634 0.233202964
vn -0.434758350 0.894428256 0.104801109
vn -0.567349421 0.812042685 0.136752742
vn -0.687416638 0.707107309 0.165703408
vn -0.789423295 0.583609490 0.190291417
vn -0.869524422 0.447210554 0.209594847
vn -0.869524422 -0.447210554 0.209594847
vn -0.789423295 -0.583609490 0.190291417
vn -0.687416638 -0.707107309 0.165703408
vn -0.567355890 -0.812037902 0.136754302
vn -0.446348481 0.894430138 0.027708493
vn -0.582482575 0.812038375 0.036162515
vn -0.705752334 0.707102700 0.043811114
vn -0.810472974 0.583611028 0.050316258
vn -0.892708416 0.447213361 0.055424673
vn -0.892708416 -0.447213361 0.055424673
vn -0.810472974 -0.583611028 0.050316258
vn -0.705752334 -0.707102700 0.043811114
vn -0.582489216 -0.812033593 0.036162928
vn -0.444383637 0.894427975 -0.050217337
vn -0.579912933 0.812038174 -0.065536206
vn -0.702638391 0.707102868 -0.079402927
vn -0.806900249 0.583606480 -0.091189171
vn -0.888768862 0.447214810 -0.100443133
vn -0.888768862 -0.447214810 -0.100443133
vn -0.806900249 -0.583606480 -0.091189171
vn -0.702638391 -0.707102868 -0.079402927
vn -0.579919545 -0.812033391 -0.065536953
vn -0.428910213 0.894428289 -0.126625689
vn -0.559722203 0.812038433 -0.165241154
vn -0.678171029 0.707107649 -0.200206962
vn -0.778806943 0.583608506 -0.229914891
vn -0.857825449 0.447215371 -0.253246741
vn -0.857825449 -0.447215371 -0.253246741
vn -0.778806943 -0.583608506 -0.229914891
vn -0.678171029 -0.707107649 -0.200206962
vn -0.559728585 -0.812033650 -0.165243038
vn -0.425831978 -0.894427910 -0.136622984
vn -0.400407139 0.894427829 -0.199180775
vn -0.522527756 0.812038559 -0.259919455
vn -0.633099243 0.707108145 -0.314933992
vn -0.727050828 0.583607809 -0.361661469
vn -0.800822365 0.447210558 -0.398354435
vn -0.800822365 -0.447210558 -0.398354435
vn -0.727050828 -0.583607809 -0.361661469
vn -0.633099243 -0.707108145 -0.314933992
vn -0.522533714 -0.812033777 -0.259922418
vn -0.387748553 -0.894431854 -0.222806461
vn -0.359732895 0.894430252 -0.265681705
vn -0.469453311 0.812039303 -0.346707021
vn -0.568800560 0.707104608 -0.420082130
vn -0.653199866 0.583612081 -0.482417738
vn -0.719476553 0.447211623 -0.531371107
vn -0.719476553 -0.447211623 -0.531371107
vn -0.653199866 -0.583612081 -0.482417738
vn -0.568800560 -0.707104608 -0.420082130
vn -0.469458664 -0.812034521 -0.346710974
vn -0.402111428 0.812039475 -0.422963699
vn -0.487214076 0.707103558 -0.512471466
vn -0.559500511 0.583608984 -0.588523349
vn -0.616275980 0.447212739 -0.648231967
vn -0.616275980 -0.447212739 -0.648231967
vn -0.559500511 -0.583608984 -0.588523349
vn -0.487214076 -0.707103558 -0.512471466
vn -0.402116013 -0.812034692 -0.422968522
vn -0.409958422 0.894428365 0.178695247
vn -0.372692227 0.894430104 0.247174621
vn -0.308139377 0.894426147 -0.324117250
vn -0.222806461 0.894431854 0.387748553
vn -0.136622984 0.894427910 0.425831978
vn -0.039818237 0.894426361 0.445439101
vn 0.265681563 0.894429773 -0.359734190
vn 0.247174621 0.894430104 0.372692227
vn 0.359734190 0.894429773 0.265681563
vn 0.446348481 0.894430138 -0.027708493
vn 0.434758350 0.894428256 -0.104801109
vn 0.409958422 0.894428365 -0.178695247
vn 0.199031972 0.894427681 0.400481458
vn 0.233200130 0.812040806 0.534983578
vn 0.282552101 0.707107111 0.648200465
vn 0.324480115 0.583606472 0.744389777
vn 0.357401165 0.447214508 0.819916820
vn 0.357401165 -0.447214508 0.819916820
vn 0.324480115 -0.583606472 0.744389777
vn 0.282552101 -0.707107111 0.648200465
vn 0.322560965 -0.812036435 0.486365349
vn 0.233202789 -0.812036024 0.534989678
vn 0.135269208 0.894428119 0.426263511
vn 0.136767899 0.812040970 0.567348223
vn 0.165703408 0.707107309 0.687416638
vn 0.190291417 0.583609490 0.789423295
vn 0.209594847 0.447210554 0.869524422
vn 0.209594847 -0.447210554 0.869524422
vn 0.190291417 -0.583609490 0.789423295
vn 0.165703408 -0.707107309 0.687416638
vn 0.136769458 -0.812036187 0.567354692
vn 0.054397742 0.894427418 0.443892419
vn 0.036163918 0.812038334 0.582482545
vn 0.043811114 0.707102700 0.705752334
vn 0.050316258 0.583611028 0.810472974
vn 0.055424673 0.447213361 0.892708416
vn 0.055424673 -0.447213361 0.892708416
vn 0.050316258 -0.583611028 0.810472974
vn 0.043811114 -0.707102700 0.705752334
vn 0.036164330 -0.812033552 0.582489186
vn -0.065536206 0.812038174 0.579912933
vn -0.079401557 0.707102946 0.702638468
vn -0.091189171 0.583606480 0.806900249
vn -0.100443133 0.447214810 0.888768862
vn -0.100443133 -0.447214810 0.888768862
vn -0.091189171 -0.583606480 0.806900249
vn -0.079401557 -0.707102946 0.702638468
vn -0.065536953 -0.812033391 0.579919545
vn -0.039818237 -0.894426361 0.445439101
vn -0.165241154 0.812038433 0.559722203
vn -0.200206962 0.707107649 0.678171029
vn -0.229914891 0.583608506 0.778806943
vn -0.253243509 0.447209664 0.857829378
vn -0.253243509 -0.447209664 0.857829378
vn -0.229914891 -0.583608506 0.778806943
vn -0.200206962 -0.707107649 0.678171029
vn -0.165243038 -0.812033650 0.559728585
vn -0.259919455 0.812038559 0.522527756
vn -0.314933992 0.707108145 0.633099243
vn -0.361661469 0.583607809 0.727050828
vn -0.398353184 0.447210823 0.800822840
vn -0.398353184 -0.447210823 0.800822840
vn -0.361661469 -0.583607809 0.727050828
vn -0.314933992 -0.707108145 0.633099243
vn -0.259922418 -0.812033777 0.522533714
vn -0.290451516 0.894428808 0.340051504
vn -0.346707021 0.812039303 0.469453311
vn -0.420081801 0.707104054 0.568801492
vn -0.482417738 0.583612081 0.653199866
vn -0.531371107 0.447211623 0.719476553
vn -0.531371107 -0.447211623 0.719476553
vn -0.482417738 -0.583612081 0.653199866
vn -0.420081801 -0.707104054 0.568801492
vn -0.346710974 -0.812034521 0.469458664
vn -0.339158924 0.894428917 0.291492943
vn -0.422963461 0.812039016 0.402112605
vn -0.512471466 0.707103558 0.487214076
vn -0.588523349 0.583608984 0.559500511
vn -0.648231967 0.447212739 0.616275980
vn -0.648231967 -0.447212739 0.616275980
vn -0.588523349 -0.583608984 0.559500511
vn -0.512471466 -0.707103558 0.487214076
vn -0.422968283 -0.812034234 0.402117190
vn -0.339158924 -0.894428917 0.291492943
vn -0.486359804 0.812041217 0.322557287
vn -0.589292327 0.707105321 0.390815326
vn -0.589292327 -0.707105321 0.390815326
f 50/50/50 49/49/49 60/60/60
f 50/50/50 41/41/41 49/49/49
f 49/49/49 41/41/41 40/40/40
f 60/60/60 49/49/49 59/59/59
f 59/59/59 68/68/68 60/60/60
f 38/38/38 48/48/48 39/39/39
f 190/190/190 191/191/191 182/182/182
f 173/173/173 172/172/172 182/182/182
f 24/24/24 23/23/23 32/32/32
f 32/32/32 23/23/23 31/31/31
f 31/31/31 40/40/40 32/32/32
f 32/32/32 40/40/40 41/41/41
f 33/33/33 32/32/32 41/41/41
f 24/24/24 32/32/32 33/33/33
f 193/193/193 10/10/10 12/12/12
f 326/326/326 317/317/317 316/316/316
f 309/309/309 308/308/308 316/316/316
f 316/316/316 317/317/317 309/309/309
f 335/335/335 336/336/336 327/327/327
f 344/344/344 336/336/336 335/335/335
f 74/74/74 73/73/73 83/83/83
f 203/203/203 205/205/205 353/353/353
f 343/343/343 351/351/351 352/352/352
f 352/352/352 351/351/351 199/199/199
f 147/147/147 146/146/146 155/155/155
f 126/126/126 125/125/125 127/127/127
f 263/263/263 262/262/262 271/271/271
f 129/129/129 126/126/126 127/127/127
f 60/60/60 68/68/68 69/69/69
f 68/68/68 78/78/78 69/69/69
f 86/86/86 78/78/78 77/77/77
f 77/77/77 78/78/78 68/68/68
f 85/85/85 76/76/76 75/75/75
f 75/75/75 76/76/76 67/67/67
f 67/67/67 66/66/66 75/75/75
f 75/75/75 74/74/74 83/83/83
f 190/190/190 182/182/182 181/181/181
f 181/181/181 182/182/182 172/172/172
f 21/21/21 7/7/7 20/20/20
f 7/7/7 6/6/6 4/4/4
f 190/190/190 189/189/189 4/4/4
f 4/4/4 6/6/6 190/190/190
f 81/81/81 111/111/111 71/71/71
f 63/63/63 53/53/53 62/62/62
f 62/62/62 71/71/71 63/63/63
f 71/71/71 111/111/111 63/63/63
f 165/165/165 174/174/174 175/175/175
f 175/175/175 174/174/174 183/183/183
f 164/164/164 172/172/172 173/173/173
f 153/153/153 164/164/164 154/154/154
f 153/153/153 143/143/143 152/152/152
f 13/13/13 23/23/23 24/24/24
f 11/11/11 23/23/23 13/13/13
f 13/13/13 10/10/10 11/11/11
f 12/12/12 10/10/10 13/13/13
f 194/194/194 193/193/193 14/14/14
f 14/14/14 193/193/193 12/12/12
f 14/14/14 15/15/15 17/17/17
f 12/12/12 13/13/13 14/14/14
f 14/14/14 13/13/13 15/15/15
f 24/24/24 33/33/33 25/25/25
f 25/25/25 13/13/13 24/24/24
f 15/15/15 13/13/13 25/25/25
f 192/192/192 193/193/193 183/183/183
f 10/10/10 193/193/193 192/192/192
f 214/214/214 222/222/222 223/223/223
f 213/213/213 222/222/222 214/214/214
f 234/234/234 224/224/224 233/233/233
f 333/333/333 334/334/334 326/326/326
f 343/343/343 334/334/334 333/333/333
f 319/319/319 318/318/318 327/327/327
f 344/344/344 353/353/353 354/354/354
f 353/353/353 205/205/205 354/354/354
f 354/354/354 205/205/205 355/355/355
f 355/355/355 346/346/346 354/354/354
f 201/201/201 352/352/352 199/199/199
f 347/347/347 356/356/356 95/95/95
f 338/338/338 346/346/346 347/347/347
f 347/347/347 346/346/346 355/355/355
f 355/355/355 356/356/356 347/347/347
f 271/271/271 262/262/262 270/270/270
f 258/258/258 266/266/266 267/267/267
f 267/267/267 266/266/266 116/116/116
f 267/267/267 116/116/116 118/118/118
f 118/118/118 268/268/268 267/267/267
f 125/125/125 126/126/126 124/124/124
f 271/271/271 270/270/270 124/124/124
f 124/124/124 272/272/272 271/271/271
f 124/124/124 126/126/126 272/272/272
f 137/137/137 125/125/125 123/123/123
f 137/137/137 138/138/138 125/125/125
f 137/137/137 146/146/146 147/147/147
f 147/147/147 138/138/138 137/137/137
f 149/149/149 159/159/159 104/104/104
f 158/158/158 159/159/159 149/149/149
f 265/265/265 272/272/272 273/273/273
f 272/272/272 126/126/126 273/273/273
f 195/195/195 186/186/186 194/194/194
f 194/194/194 14/14/14 195/195/195
f 177/177/177 186/186/186 178/178/178
f 87/87/87 78/78/78 86/86/86
f 86/86/86 292/292/292 87/87/87
f 180/180/180 181/181/181 172/172/172
f 180/180/180 189/189/189 190/190/190
f 190/190/190 181/181/181 180/180/180
f 20/20/20 7/7/7 5/5/5
f 7/7/7 4/4/4 5/5/5
f 5/5/5 19/19/19 20/20/20
f 8/8/8 191/191/191 190/190/190
f 190/190/190 6/6/6 8/8/8
f 8/8/8 6/6/6 7/7/7
f 7/7/7 9/9/9 8/8/8
f 7/7/7 21/21/21 22/22/22
f 22/22/22 9/9/9 7/7/7
f 156/156/156 155/155/155 165/165/165
f 147/147/147 155/155/155 156/156/156
f 183/183/183 193/193/193 184/184/184
f 184/184/184 175/175/175 183/183/183
f 186/186/186 177/177/177 176/176/176
f 163/163/163 153/153/153 152/152/152
f 172/172/172 164/164/164 163/163/163
f 164/164/164 153/153/153 163/163/163
f 144/144/144 154/154/154 145/145/145
f 144/144/144 153/153/153 154/154/154
f 145/145/145 136/136/136 144/144/144
f 144/144/144 136/136/136 135/135/135
f 144/144/144 135/135/135 143/143/143
f 143/143/143 153/153/153 144/144/144
f 110/110/110 34/34/34 43/43/43
f 53/53/53 110/110/110 43/43/43
f 43/43/43 34/34/34 33/33/33
f 61/61/61 50/50/50 60/60/60
f 61/61/61 51/51/51 50/50/50
f 61/61/61 71/71/71 62/62/62
f 41/41/41 50/50/50 42/42/42
f 50/50/50 51/51/51 42/42/42
f 42/42/42 33/33/33 41/41/41
f 42/42/42 43/43/43 33/33/33
f 33/33/33 34/34/34 26/26/26
f 26/26/26 25/25/25 33/33/33
f 17/17/17 15/15/15 26/26/26
f 15/15/15 25/25/25 26/26/26
f 26/26/26 108/108/108 107/107/107
f 107/107/107 17/17/17 26/26/26
f 239/239/239 248/248/248 249/249/249
f 249/249/249 250/250/250 239/239/239
f 258/258/258 248/248/248 247/247/247
f 231/231/231 232/232/232 223/223/223
f 223/223/223 222/222/222 231/231/231
f 241/241/241 232/232/232 231/231/231
f 202/202/202 201/201/201 200/200/200
f 200/200/200 201/201/201 199/199/199
f 200/200/200 214/214/214 202/202/202
f 213/213/213 214/214/214 200/200/200
f 221/221/221 222/222/222 213/213/213
f 230/230/230 231/231/231 221/221/221
f 221/221/221 231/231/231 222/222/222
f 199/199/199 351/351/351 350/350/350
f 255/255/255 256/256/256 246/246/246
f 265/265/265 256/256/256 255/255/255
f 271/271/271 272/272/272 264/264/264
f 264/264/264 263/263/263 271/271/271
f 264/264/264 272/272/272 265/265/265
f 265/265/265 255/255/255 264/264/264
f 264/264/264 255/255/255 254/254/254
f 263/263/263 264/264/264 253/253/253
f 253/253/253 264/264/264 254/254/254
f 253/253/253 252/252/252 262/262/262
f 262/262/262 263/263/263 253/253/253
f 234/234/234 233/233/233 242/242/242
f 83/83/83 73/73/73 82/82/82
f 72/72/72 281/281/281 82/82/82
f 73/73/73 72/72/72 82/82/82
f 288/288/288 297/297/297 298/298/298
f 288/288/288 289/289/289 83/83/83
f 298/298/298 289/289/289 288/288/288
f 305/305/305 297/297/297 296/296/296
f 299/299/299 289/289/289 298/298/298
f 85/85/85 289/289/289 290/290/290
f 85/85/85 75/75/75 84/84/84
f 84/84/84 289/289/289 85/85/85
f 84/84/84 75/75/75 83/83/83
f 83/83/83 289/289/289 84/84/84
f 326/326/326 316/316/316 325/325/325
f 325/325/325 333/333/333 326/326/326
f 316/316/316 315/315/315 325/325/325
f 342/342/342 351/351/351 343/343/343
f 343/343/343 333/333/333 342/342/342
f 314/314/314 315/315/315 307/307/307
f 298/298/298 297/297/297 307/307/307
f 308/308/308 299/299/299 307/307/307
f 307/307/307 299/299/299 298/298/298
f 307/307/307 316/316/316 308/308/308
f 307/307/307 315/315/315 316/316/316
f 327/327/327 336/336/336 328/328/328
f 328/328/328 319/319/319 327/327/327
f 209/209/209 217/217/217 218/218/218
f 218/218/218 98/98/98 209/209/209
f 227/227/227 218/218/218 217/217/217
f 236/236/236 100/100/100 227/227/227
f 360/360/360 356/356/356 355/355/355
f 355/355/355 205/205/205 360/360/360
f 225/225/225 224/224/224 234/234/234
f 345/345/345 336/336/336 344/344/344
f 344/344/344 354/354/354 345/345/345
f 346/346/346 336/336/336 345/345/345
f 345/345/345 354/354/354 346/346/346
f 29/29/29 39/39/39 30/30/30
f 38/38/38 39/39/39 29/29/29
f 30/30/30 22/22/22 29/29/29
f 29/29/29 22/22/22 21/21/21
f 57/57/57 58/58/58 48/48/48
f 67/67/67 58/58/58 57/57/57
f 57/57/57 66/66/66 67/67/67
f 55/55/55 56/56/56 45/45/45
f 55/55/55 44/44/44 54/54/54
f 45/45/45 44/44/44 55/55/55
f 101/101/101 256/256/256 265/265/265
f 265/265/265 273/273/273 101/101/101
f 101/101/101 273/273/273 102/102/102
f 94/94/94 93/93/93 338/338/338
f 338/338/338 347/347/347 94/94/94
f 94/94/94 347/347/347 95/95/95
f 208/208/208 360/360/360 209/209/209
f 356/356/356 360/360/360 208/208/208
f 209/209/209 98/98/98 97/97/97
f 97/97/97 208/208/208 209/209/209
f 96/96/96 208/208/208 97/97/97
f 95/95/95 356/356/356 357/357/357
f 356/356/356 208/208/208 357/357/357
f 357/357/357 208/208/208 96/96/96
f 122/122/122 124/124/124 270/270/270
f 123/123/123 125/125/125 122/122/122
f 125/125/125 124/124/124 122/122/122
f 118/118/118 120/120/120 269/269/269
f 269/269/269 268/268/268 118/118/118
f 143/143/143 135/135/135 134/134/134
f 115/115/115 117/117/117 116/116/116
f 258/258/258 267/267/267 259/259/259
f 259/259/259 248/248/248 258/258/258
f 249/249/249 248/248/248 259/259/259
f 260/260/260 250/250/250 259/259/259
f 259/259/259 250/250/250 249/249/249
f 259/259/259 268/268/268 260/260/260
f 259/259/259 267/267/267 268/268/268
f 148/148/148 157/157/157 158/158/158
f 158/158/158 149/149/149 148/148/148
f 148/148/148 138/138/138 147/147/147
f 147/147/147 156/156/156 148/148/148
f 148/148/148 156/156/156 157/157/157
f 103/103/103 131/131/131 129/129/129
f 102/102/102 273/273/273 128/128/128
f 129/129/129 131/131/131 128/128/128
f 126/126/126 129/129/129 128/128/128
f 128/128/128 273/273/273 126/126/126
f 16/16/16 107/107/107 18/18/18
f 16/16/16 17/17/17 107/107/107
f 16/16/16 14/14/14 17/17/17
f 16/16/16 195/195/195 14/14/14
f 178/178/178 186/186/186 106/106/106
f 186/186/186 195/195/195 106/106/106
f 158/158/158 157/157/157 168/168/168
f 168/168/168 157/157/157 167/167/167
f 168/168/168 159/159/159 158/158/158
f 167/167/167 176/176/176 168/168/168
f 168/168/168 176/176/176 177/177/177
f 291/291/291 292/292/292 86/86/86
f 291/291/291 301/301/301 292/292/292
f 318/318/318 319/319/319 310/310/310
f 292/292/292 301/301/301 302/302/302
f 302/302/302 303/303/303 292/292/292
f 171/171/171 180/180/180 172/172/172
f 172/172/172 163/163/163 171/171/171
f 151/151/151 150/150/150 160/160/160
f 142/142/142 150/150/150 151/151/151
f 152/152/152 143/143/143 151/151/151
f 143/143/143 142/142/142 151/151/151
f 35/35/35 44/44/44 36/36/36
f 36/36/36 44/44/44 45/45/45
f 45/45/45 37/37/37 36/36/36
f 19/19/19 5/5/5 3/3/3
f 3/3/3 4/4/4 1/1/1
f 3/3/3 5/5/5 4/4/4
f 20/20/20 19/19/19 28/28/28
f 28/28/28 36/36/36 37/37/37
f 28/28/28 21/21/21 20/20/20
f 28/28/28 29/29/29 21/21/21
f 28/28/28 37/37/37 38/38/38
f 38/38/38 29/29/29 28/28/28
f 165/165/165 175/175/175 166/166/166
f 166/166/166 156/156/156 165/165/165
f 166/166/166 176/176/176 167/167/167
f 175/175/175 176/176/176 166/166/166
f 167/167/167 157/157/157 166/166/166
f 157/157/157 156/156/156 166/166/166
f 185/185/185 193/193/193 194/194/194
f 185/185/185 184/184/184 193/193/193
f 194/194/194 186/186/186 185/185/185
f 186/186/186 176/176/176 185/185/185
f 175/175/175 184/184/184 185/185/185
f 185/185/185 176/176/176 175/175/175
f 62/62/62 53/53/53 52/52/52
f 53/53/53 43/43/43 52/52/52
f 52/52/52 61/61/61 62/62/62
f 51/51/51 61/61/61 52/52/52
f 52/52/52 42/42/42 51/51/51
f 43/43/43 42/42/42 52/52/52
f 109/109/109 34/34/34 110/110/110
f 109/109/109 26/26/26 34/34/34
f 108/108/108 26/26/26 109/109/109
f 276/276/276 266/266/266 258/258/258
f 240/240/240 239/239/239 250/250/250
f 241/241/241 231/231/231 240/240/240
f 230/230/230 239/239/239 240/240/240
f 240/240/240 231/231/231 230/230/230
f 240/240/240 251/251/251 241/241/241
f 240/240/240 250/250/250 251/251/251
f 212/212/212 221/221/221 213/213/213
f 213/213/213 200/200/200 212/212/212
f 212/212/212 200/200/200 198/198/198
f 198/198/198 197/197/197 212/212/212
f 220/220/220 221/221/221 212/212/212
f 314/314/314 279/279/279 323/323/323
f 323/323/323 315/315/315 314/314/314
f 278/278/278 323/323/323 279/279/279
f 331/331/331 323/323/323 278/278/278
f 142/142/142 132/132/132 141/141/141
f 141/141/141 150/150/150 142/142/142
f 245/245/245 255/255/255 246/246/246
f 246/246/246 100/100/100 245/245/245
f 245/245/245 100/100/100 236/236/236
f 245/245/245 236/236/236 235/235/235
f 243/243/243 242/242/242 252/252/252
f 252/252/252 253/253/253 243/243/243
f 234/234/234 242/242/242 243/243/243
f 243/243/243 235/235/235 234/234/234
f 286/286/286 82/82/82 281/281/281
f 83/83/83 82/82/82 287/287/287
f 287/287/287 288/288/288 83/83/83
f 297/297/297 288/288/288 287/287/287
f 82/82/82 286/286/286 287/287/287
f 287/287/287 286/286/286 296/296/296
f 296/296/296 297/297/297 287/287/287
f 289/289/289 299/299/299 300/300/300
f 300/300/300 290/290/290 289/289/289
f 300/300/300 308/308/308 309/309/309
f 300/300/300 299/299/299 308/308/308
f 340/340/340 350/350/350 341/341/341
f 341/341/341 333/333/333 332/332/332
f 341/341/341 342/342/342 333/333/333
f 341/341/341 350/350/350 351/351/351
f 351/351/351 342/342/342 341/341/341
f 332/332/332 331/331/331 341/341/341
f 341/341/341 331/331/331 340/340/340
f 314/314/314 307/307/307 306/306/306
f 306/306/306 307/307/307 297/297/297
f 297/297/297 305/305/305 306/306/306
f 306/306/306 305/305/305 279/279/279
f 306/306/306 279/279/279 314/314/314
f 329/329/329 328/328/328 336/336/336
f 322/322/322 92/92/92 313/313/313
f 71/71/71 61/61/61 70/70/70
f 70/70/70 69/69/69 78/78/78
f 60/60/60 69/69/69 70/70/70
f 70/70/70 61/61/61 60/60/60
f 88/88/88 87/87/87 292/292/292
f 78/78/78 87/87/87 88/88/88
f 235/235/235 236/236/236 226/226/226
f 236/236/236 227/227/227 226/226/226
f 226/226/226 227/227/227 217/217/217
f 234/234/234 235/235/235 226/226/226
f 226/226/226 225/225/225 234/234/234
f 99/99/99 227/227/227 100/100/100
f 98/98/98 218/218/218 99/99/99
f 218/218/218 227/227/227 99/99/99
f 207/207/207 217/217/217 209/209/209
f 209/209/209 360/360/360 207/207/207
f 224/224/224 225/225/225 215/215/215
f 46/46/46 37/37/37 45/45/45
f 45/45/45 56/56/56 46/46/46
f 66/66/66 57/57/57 65/65/65
f 57/57/57 56/56/56 65/65/65
f 65/65/65 75/75/75 66/66/66
f 74/74/74 75/75/75 65/65/65
f 261/261/261 250/250/250 260/260/260
f 251/251/251 250/250/250 261/261/261
f 260/260/260 268/268/268 261/261/261
f 268/268/268 269/269/269 261/261/261
f 136/136/136 121/121/121 119/119/119
f 135/135/135 136/136/136 119/119/119
f 119/119/119 121/121/121 120/120/120
f 119/119/119 120/120/120 118/118/118
f 118/118/118 116/116/116 119/119/119
f 116/116/116 117/117/117 119/119/119
f 119/119/119 134/134/134 135/135/135
f 117/117/117 134/134/134 119/119/119
f 133/133/133 142/142/142 143/143/143
f 143/143/143 134/134/134 133/133/133
f 133/133/133 132/132/132 142/142/142
f 133/133/133 134/134/134 117/117/117
f 117/117/117 115/115/115 133/133/133
f 133/133/133 114/114/114 132/132/132
f 133/133/133 115/115/115 114/114/114
f 113/113/113 114/114/114 112/112/112
f 114/114/114 115/115/115 112/112/112
f 112/112/112 276/276/276 113/113/113
f 266/266/266 276/276/276 112/112/112
f 116/116/116 266/266/266 112/112/112
f 112/112/112 115/115/115 116/116/116
f 138/138/138 148/148/148 139/139/139
f 127/127/127 125/125/125 139/139/139
f 125/125/125 138/138/138 139/139/139
f 102/102/102 128/128/128 130/130/130
f 130/130/130 128/128/128 131/131/131
f 196/196/196 106/106/106 195/195/195
f 196/196/196 16/16/16 18/18/18
f 195/195/195 16/16/16 196/196/196
f 159/159/159 168/168/168 105/105/105
f 105/105/105 177/177/177 178/178/178
f 105/105/105 168/168/168 177/177/177
f 301/301/301 310/310/310 311/311/311
f 311/311/311 302/302/302 301/301/301
f 311/311/311 310/310/310 319/319/319
f 162/162/162 163/163/163 152/152/152
f 162/162/162 171/171/171 163/163/163
f 160/160/160 170/170/170 161/161/161
f 161/161/161 151/151/151 160/160/160
f 170/170/170 171/171/171 161/161/161
f 171/171/171 162/162/162 161/161/161
f 152/152/152 151/151/151 161/161/161
f 161/161/161 162/162/162 152/152/152
f 169/169/169 170/170/170 160/160/160
f 188/188/188 4/4/4 189/189/189
f 1/1/1 4/4/4 188/188/188
f 35/35/35 36/36/36 27/27/27
f 27/27/27 28/28/28 19/19/19
f 36/36/36 28/28/28 27/27/27
f 1/1/1 2/2/2 285/285/285
f 285/285/285 3/3/3 1/1/1
f 285/285/285 284/284/284 19/19/19
f 19/19/19 3/3/3 285/285/285
f 210/210/210 220/220/220 211/211/211
f 211/211/211 197/197/197 210/210/210
f 220/220/220 212/212/212 211/211/211
f 211/211/211 212/212/212 197/197/197
f 359/359/359 197/197/197 198/198/198
f 199/199/199 350/350/350 359/359/359
f 359/359/359 200/200/200 199/199/199
f 198/198/198 200/200/200 359/359/359
f 219/219/219 220/220/220 210/210/210
f 219/219/219 228/228/228 220/220/220
f 220/220/220 228/228/228 229/229/229
f 230/230/230 221/221/221 229/229/229
f 229/229/229 221/221/221 220/220/220
f 258/258/258 247/247/247 257/257/257
f 257/257/257 276/276/276 258/258/258
f 315/315/315 323/323/323 324/324/324
f 324/324/324 325/325/325 315/315/315
f 324/324/324 331/331/331 332/332/332
f 324/324/324 323/323/323 331/331/331
f 332/332/332 333/333/333 324/324/324
f 333/333/333 325/325/325 324/324/324
f 331/331/331 278/278/278 277/277/277
f 277/277/277 339/339/339 340/340/340
f 340/340/340 331/331/331 277/277/277
f 244/244/244 245/245/245 235/235/235
f 235/235/235 243/243/243 244/244/244
f 254/254/254 255/255/255 244/244/244
f 255/255/255 245/245/245 244/244/244
f 244/244/244 253/253/253 254/254/254
f 244/244/244 243/243/243 253/253/253
f 337/337/337 346/346/346 338/338/338
f 338/338/338 329/329/329 337/337/337
f 337/337/337 336/336/336 346/346/346
f 337/337/337 329/329/329 336/336/336
f 319/319/319 328/328/328 320/320/320
f 328/328/328 329/329/329 320/320/320
f 322/322/322 313/313/313 321/321/321
f 304/304/304 313/313/313 92/92/92
f 292/292/292 303/303/303 293/293/293
f 293/293/293 88/88/88 292/292/292
f 303/303/303 304/304/304 293/293/293
f 79/79/79 70/70/70 78/78/78
f 78/78/78 88/88/88 79/79/79
f 71/71/71 70/70/70 79/79/79
f 206/206/206 360/360/360 205/205/205
f 206/206/206 207/207/207 360/360/360
f 217/217/217 207/207/207 206/206/206
f 204/204/204 215/215/215 206/206/206
f 206/206/206 203/203/203 204/204/204
f 205/205/205 203/203/203 206/206/206
f 47/47/47 56/56/56 57/57/57
f 47/47/47 46/46/46 56/56/56
f 47/47/47 48/48/48 38/38/38
f 47/47/47 57/57/57 48/48/48
f 38/38/38 37/37/37 47/47/47
f 37/37/37 46/46/46 47/47/47
f 56/56/56 55/55/55 64/64/64
f 64/64/64 65/65/65 56/56/56
f 73/73/73 74/74/74 64/64/64
f 74/74/74 65/65/65 64/64/64
f 64/64/64 282/282/282 72/72/72
f 64/64/64 72/72/72 73/73/73
f 54/54/54 282/282/282 64/64/64
f 64/64/64 55/55/55 54/54/54
f 140/140/140 148/148/148 149/149/149
f 140/140/140 139/139/139 148/148/148
f 140/140/140 103/103/103 129/129/129
f 140/140/140 129/129/129 127/127/127
f 127/127/127 139/139/139 140/140/140
f 104/104/104 103/103/103 140/140/140
f 140/140/140 149/149/149 104/104/104
f 187/187/187 2/2/2 1/1/1
f 1/1/1 188/188/188 187/187/187
f 179/179/179 169/169/169 280/280/280
f 170/170/170 169/169/169 179/179/179
f 280/280/280 187/187/187 179/179/179
f 179/179/179 187/187/187 188/188/188
f 180/180/180 171/171/171 179/179/179
f 179/179/179 171/171/171 170/170/170
f 189/189/189 180/180/180 179/179/179
f 179/179/179 188/188/188 189/189/189
f 35/35/35 27/27/27 283/283/283
f 19/19/19 284/284/284 283/283/283
f 283/283/283 27/27/27 19/19/19
f 210/210/210 197/197/197 274/274/274
f 340/340/340 339/339/339 349/349/349
f 349/349/349 350/350/350 340/340/340
f 349/349/349 359/359/359 350/350/350
f 238/238/238 229/229/229 228/228/228
f 238/238/238 247/247/247 248/248/248
f 248/248/248 239/239/239 238/238/238
f 238/238/238 239/239/239 230/230/230
f 230/230/230 229/229/229 238/238/238
f 312/312/312 304/304/304 303/303/303
f 313/313/313 304/304/304 312/312/312
f 312/312/312 321/321/321 313/313/313
f 320/320/320 321/321/321 312/312/312
f 303/303/303 302/302/302 312/312/312
f 302/302/302 311/311/311 312/312/312
f 312/312/312 311/311/311 319/319/319
f 319/319/319 320/320/320 312/312/312
f 330/330/330 93/93/93 322/322/322
f 322/322/322 321/321/321 330/330/330
f 338/338/338 93/93/93 330/330/330
f 330/330/330 329/329/329 338/338/338
f 330/330/330 320/320/320 329/329/329
f 330/330/330 321/321/321 320/320/320
f 91/91/91 304/304/304 92/92/92
f 90/90/90 89/89/89 294/294/294
f 294/294/294 89/89/89 81/81/81
f 216/216/216 215/215/215 225/225/225
f 216/216/216 206/206/206 215/215/215
f 217/217/217 206/206/206 216/216/216
f 216/216/216 226/226/226 217/217/217
f 225/225/225 226/226/226 216/216/216
f 348/348/348 349/349/349 339/339/339
f 275/275/275 274/274/274 358/358/358
f 358/358/358 274/274/274 197/197/197
f 197/197/197 359/359/359 358/358/358
f 359/359/359 349/349/349 358/358/358
f 358/358/358 348/348/348 275/275/275
f 349/349/349 348/348/348 358/358/358
f 247/247/247 238/238/238 237/237/237
f 237/237/237 238/238/238 228/228/228
f 90/90/90 294/294/294 295/295/295
f 295/295/295 91/91/91 90/90/90
f 304/304/304 91/91/91 295/295/295
f 295/295/295 293/293/293 304/304/304
f 88/88/88 293/293/293 295/295/295
f 295/295/295 294/294/294 88/88/88
f 80/80/80 81/81/81 71/71/71
f 80/80/80 294/294/294 81/81/81
f 71/71/71 79/79/79 80/80/80
f 80/80/80 79/79/79 88/88/88
f 88/88/88 294/294/294 80/80/80
f 39/39/39 40/40/40 31/31/31
f 39/39/39 31/31/31 30/30/30
f 39/39/39 48/48/48 49/49/49
f 49/49/49 40/40/40 39/39/39
f 173/173/173 182/182/182 174/174/174
f 174/174/174 182/182/182 183/183/183
f 327/327/327 318/318/318 317/317/317
f 317/317/317 326/326/326 327/327/327
f 327/327/327 326/326/326 335/335/335
f 326/326/326 334/334/334 335/335/335
f 343/343/343 344/344/344 335/335/335
f 335/335/335 334/334/334 343/343/343
f 68/68/68 59/59/59 58/58/58
f 67/67/67 68/68/68 58/58/58
f 49/49/49 48/48/48 58/58/58
f 58/58/58 59/59/59 49/49/49
f 352/352/352 344/344/344 343/343/343
f 352/352/352 353/353/353 344/344/344
f 145/145/145 154/154/154 155/155/155
f 155/155/155 146/146/146 145/145/145
f 77/77/77 76/76/76 85/85/85
f 77/77/77 85/85/85 86/86/86
f 77/77/77 68/68/68 67/67/67
f 67/67/67 76/76/76 77/77/77
f 173/173/173 174/174/174 164/164/164
f 164/164/164 174/174/174 165/165/165
f 164/164/164 155/155/155 154/154/154
f 165/165/165 155/155/155 164/164/164
f 183/183/183 182/182/182 192/192/192
f 192/192/192 182/182/182 191/191/191
f 223/223/223 232/232/232 233/233/233
f 233/233/233 224/224/224 223/223/223
f 204/204/204 203/203/203 201/201/201
f 201/201/201 202/202/202 204/204/204
f 353/353/353 352/352/352 201/201/201
f 201/201/201 203/203/203 353/353/353
f 145/145/145 146/146/146 137/137/137
f 137/137/137 136/136/136 145/145/145
f 8/8/8 192/192/192 191/191/191
f 10/10/10 192/192/192 8/8/8
f 11/11/11 10/10/10 8/8/8
f 8/8/8 9/9/9 11/11/11
f 30/30/30 31/31/31 22/22/22
f 31/31/31 23/23/23 22/22/22
f 11/11/11 9/9/9 22/22/22
f 22/22/22 23/23/23 11/11/11
f 251/251/251 252/252/252 242/242/242
f 241/241/241 251/251/251 242/242/242
f 242/242/242 233/233/233 232/232/232
f 242/242/242 232/232/232 241/241/241
f 269/269/269 122/122/122 270/270/270
f 120/120/120 122/122/122 269/269/269
f 121/121/121 122/122/122 120/120/120
f 123/123/123 122/122/122 121/121/121
f 136/136/136 137/137/137 121/121/121
f 121/121/121 137/137/137 123/123/123
f 86/86/86 85/85/85 291/291/291
f 85/85/85 290/290/290 291/291/291
f 310/310/310 317/317/317 318/318/318
f 309/309/309 317/317/317 310/310/310
f 309/309/309 310/310/310 300/300/300
f 300/300/300 310/310/310 301/301/301
f 300/300/300 291/291/291 290/290/290
f 301/301/301 291/291/291 300/300/300
f 204/204/204 202/202/202 215/215/215
f 202/202/202 214/214/214 215/215/215
f 223/223/223 224/224/224 215/215/215
f 215/215/215 214/214/214 223/223/223
f 261/261/261 252/252/252 251/251/251
f 262/262/262 252/252/252 261/261/261
f 261/261/261 269/269/269 270/270/270
f 261/261/261 270/270/270 262/262/262
f 107/107/107 108/108/108 91/91/91
f 18/18/18 107/107/107 91/91/91
f 53/53/53 63/63/63 91/91/91
f 91/91/91 103/103/103 104/104/104
f 91/91/91 110/110/110 53/53/53
f 246/246/246 256/256/256 91/91/91
f 95/95/95 357/357/357 91/91/91
f 91/91/91 89/89/89 90/90/90
f 104/104/104 159/159/159 91/91/91
f 91/91/91 105/105/105 178/178/178
f 91/91/91 101/101/101 102/102/102
f 91/91/91 97/97/97 98/98/98
f 111/111/111 81/81/81 91/91/91
f 91/91/91 63/63/63 111/111/111
f 91/91/91 100/100/100 246/246/246
f 91/91/91 92/92/92 322/322/322
f 322/322/322 93/93/93 91/91/91
f 91/91/91 94/94/94 95/95/95
f 91/91/91 196/196/196 18/18/18
f 98/98/98 99/99/99 91/91/91
f 81/81/81 89/89/89 91/91/91
f 102/102/102 130/130/130 91/91/91
f 91/91/91 109/109/109 110/110/110
f 256/256/256 101/101/101 91/91/91
f 93/93/93 94/94/94 91/91/91
f 96/96/96 97/97/97 91/91/91
f 91/91/91 357/357/357 96/96/96
f 131/131/131 103/103/103 91/91/91
f 178/178/178 106/106/106 91/91/91
f 108/108/108 109/109/109 91/91/91
f 91/91/91 99/99/99 100/100/100
f 91/91/91 130/130/130 131/131/131
f 106/106/106 196/196/196 91/91/91
f 159/159/159 105/105/105 91/91/91
f 72/72/72 282/282/282 237/237/237
f 237/237/237 281/281/281 72/72/72
f 237/237/237 114/114/114 113/113/113
f 2/2/2 187/187/187 237/237/237
f 113/113/113 276/276/276 237/237/237
f 279/279/279 305/305/305 237/237/237
f 160/160/160 150/150/150 237/237/237
f 296/296/296 286/286/286 237/237/237
f 237/237/237 141/141/141 132/132/132
f 237/237/237 44/44/44 35/35/35
f 35/35/35 283/283/283 237/237/237
f 237/237/237 285/285/285 2/2/2
f 237/237/237 278/278/278 279/279/279
f 132/132/132 114/114/114 237/237/237
f 237/237/237 305/305/305 296/296/296
f 54/54/54 44/44/44 237/237/237
f 339/339/339 277/277/277 237/237/237
f 237/237/237 169/169/169 160/160/160
f 237/237/237 348/348/348 339/339/339
f 237/237/237 219/219/219 210/210/210
f 237/237/237 257/257/257 247/247/247
f 150/150/150 141/141/141 237/237/237
f 237/237/237 286/286/286 281/281/281
f 237/237/237 282/282/282 54/54/54
f 280/280/280 169/169/169 237/237/237
f 284/284/284 285/285/285 237/237/237
f 210/210/210 274/274/274 237/237/237
f 228/228/228 219/219/219 237/237/237
f 276/276/276 257/257/257 237/237/237
f 237/237/237 277/277/277 278/278/278
f 237/237/237 187/187/187 280/280/280
f 237/237/237 283/283/283 284/284/284
f 237/237/237 274/274/274 275/275/275
f 275/275/275 348/348/348 237/237/237
