# https://github.com/mikedh/trimesh
v 0.34877600 0.50507200 -0.24249400
v 0.25290600 0.52795200 -0.17891400
v 0.38340600 0.50507200 -0.17885400
v 0.43005600 0.43990200 -0.29639400
v 0.47280600 0.43990200 -0.21782400
v 0.48435600 0.34238200 -0.33241400
v 0.53254700 0.34238200 -0.24386400
v 0.50342600 0.22734200 -0.34506400
v 0.55351600 0.22734200 -0.25300400
v 0.50342600 -0.37386800 -0.34506400
v 0.55351600 -0.37386800 -0.25300400
v 0.48435600 -0.48890800 -0.33241400
v 0.53254700 -0.48890800 -0.24386400
v 0.43005600 -0.58642800 -0.29639400
v 0.47280600 -0.58642800 -0.21782400
v 0.34877600 -0.65158800 -0.24249400
v 0.38340600 -0.65158800 -0.17885400
v 0.25290600 -0.67447800 -0.17891400
v 0.40646600 0.50507200 -0.11017400
v 0.50126600 0.43990200 -0.13302400
v 0.56461600 0.34238200 -0.14829400
v 0.58686600 0.22734200 -0.15365400
v 0.58686600 -0.37386800 -0.15365400
v 0.56461600 -0.48890800 -0.14829400
v 0.50126600 -0.58642800 -0.13302400
v 0.40646600 -0.65158800 -0.11017400
v 0.41723600 0.50507200 -0.03852400
v 0.51457600 0.43990200 -0.04456400
v 0.57960700 0.34238200 -0.04860400
v 0.60244600 0.22734200 -0.05002400
v 0.60244600 -0.37386800 -0.05002400
v 0.57960700 -0.48890800 -0.04860400
v 0.51457600 -0.58642800 -0.04456400
v 0.41723600 -0.65158800 -0.03852400
v 0.30109600 0.52795200 0.02098600
v 0.41540600 0.50507200 0.03390600
v 0.51231600 0.43990200 0.04485600
v 0.57706600 0.34238200 0.05217600
v 0.59980600 0.22734200 0.05474600
v 0.59980600 -0.37386800 0.05474600
v 0.57706600 -0.48890800 0.05217600
v 0.51231600 -0.58642800 0.04485600
v 0.41540600 -0.65158800 0.03390600
v 0.29069600 0.52795200 0.07234600
v 0.40102600 0.50507200 0.10491600
v 0.49455600 0.43990200 0.13252600
v 0.55705600 0.34238200 0.15097600
v 0.57900600 0.22734200 0.15745600
v 0.57900600 -0.37386800 0.15745600
v 0.55705600 -0.48890800 0.15097600
v 0.49455600 -0.58642800 0.13252600
v 0.40102600 -0.65158800 0.10491600
v 0.29069600 -0.67447800 0.07234600
v 0.27153600 0.52795200 0.12111600
v 0.37453700 0.50507200 0.17234600
v 0.46185600 0.43990200 0.21578600
v 0.52019600 0.34238200 0.24480600
v 0.54068600 0.22734200 0.25499600
v 0.54068600 -0.37386800 0.25499600
v 0.52019600 -0.48890800 0.24480600
v 0.46185600 -0.58642800 0.21578600
v 0.37453700 -0.65158800 0.17234600
v 0.27153600 -0.67447800 0.12111600
v 0.33673600 0.50507200 0.23415600
v 0.41518600 0.43990200 0.29209600
v 0.46759700 0.34238200 0.33080600
v 0.48600600 0.22734200 0.34440600
v 0.48600600 -0.37386800 0.34440600
v 0.46759700 -0.48890800 0.33080600
v 0.41518600 -0.58642800 0.29209600
v 0.33673600 -0.65158800 0.23415600
v 0.20951700 0.52795200 0.20509600
v 0.28877600 0.50507200 0.28846600
v 0.35597600 0.43990200 0.35914600
v 0.40087700 0.34238200 0.40637600
v 0.41663600 0.22734200 0.42295600
v 0.41663600 -0.37386800 0.42295600
v 0.40087700 -0.48890800 0.40637600
v 0.35597600 -0.58642800 0.35914600
v 0.28877600 -0.65158800 0.28846600
v 0.20951700 -0.67447800 0.20509600
v 0.23211600 0.50507200 0.33361600
v 0.28601600 0.43990200 0.41489600
v 0.32203700 0.34238200 0.46919600
v 0.33468700 0.22734200 0.48826600
v 0.33468700 -0.37386800 0.48826600
v 0.32203700 -0.48890800 0.46919600
v 0.28601600 -0.58642800 0.41489600
v 0.16853600 -0.67447800 0.23774600
v 0.13617600 -0.67447800 0.25642600
v 0.09331600 -0.67447800 0.27375600
v 0.03895600 -0.67447800 0.28560600
v -0.08944400 -0.67447800 0.27346600
v -0.14737400 -0.67447800 0.24786600
v -0.19284400 -0.67447800 0.21580600
v -0.24812400 -0.67447800 0.15337600
v -0.26680400 -0.67447800 0.12101600
v -0.28413400 -0.67447800 0.07815600
v -0.29598400 -0.67447800 0.02379600
v -0.29702400 -0.67447800 -0.03953400
v -0.22618400 -0.67447800 -0.20800400
v -0.19354400 -0.67447800 -0.24074400
v -0.08853400 -0.67447800 -0.29929400
v -0.03417300 -0.67447800 -0.31114400
v 0.09422600 -0.67447800 -0.29900400
v 0.19762600 -0.67447800 -0.24134400
v 0.27795600 -0.67447800 -0.13288400
v 0.29462600 -0.67447800 -0.08321400
v 0.30241600 -0.67447800 -0.03139400
v 0.30109600 -0.67447800 0.02098600
v 0.24419600 -0.67447800 0.16581600
v -0.22733400 0.50507200 -0.35915400
v -0.16375400 0.52795200 -0.26328400
v -0.11772300 0.52795200 -0.28833400
v -0.16369400 0.50507200 -0.39378400
v -0.28123400 0.43990200 -0.44043400
v -0.20266400 0.43990200 -0.48318400
v -0.31725400 0.34238200 -0.49473400
v -0.22870300 0.34238200 -0.54292400
v -0.32989400 0.22734200 -0.51380400
v -0.23784400 0.22734200 -0.56389400
v -0.32989400 -0.37386800 -0.51380400
v -0.23784400 -0.37386800 -0.56389400
v -0.31725400 -0.48890800 -0.49473400
v -0.22870300 -0.48890800 -0.54292400
v -0.28123400 -0.58642800 -0.44043400
v -0.20266400 -0.58642800 -0.48318400
v -0.22733400 -0.65158800 -0.35915400
v -0.16369400 -0.65158800 -0.39378400
v -0.16375400 -0.67447800 -0.26328400
v -0.13139400 -0.67447800 -0.28196400
v -0.06805300 0.52795200 -0.30500400
v -0.09500400 0.50507200 -0.41684400
v -0.11786400 0.43990200 -0.51164400
v -0.13313400 0.34238200 -0.57499400
v -0.13849400 0.22734200 -0.59724400
v -0.13849400 -0.37386800 -0.59724400
v -0.13313400 -0.48890800 -0.57499400
v -0.11786400 -0.58642800 -0.51164400
v -0.09500400 -0.65158800 -0.41684400
v -0.01623400 0.52795200 -0.31279400
v -0.02336400 0.50507200 -0.42761400
v -0.02940400 0.43990200 -0.52495400
v -0.03344400 0.34238200 -0.58998400
v -0.03486300 0.22734200 -0.61282400
v -0.03486300 -0.37386800 -0.61282400
v -0.03344400 -0.48890800 -0.58998400
v -0.02940400 -0.58642800 -0.52495400
v -0.02336400 -0.65158800 -0.42761400
v 0.03614600 0.52795200 -0.31147400
v 0.04906600 0.50507200 -0.42578400
v 0.06001600 0.43990200 -0.52269400
v 0.06733600 0.34238200 -0.58744400
v 0.06990600 0.22734200 -0.61018400
v 0.06990600 -0.37386800 -0.61018400
v 0.06733600 -0.48890800 -0.58744400
v 0.06001600 -0.58642800 -0.52269400
v 0.04906600 -0.65158800 -0.42578400
v 0.02915600 -0.67447800 -0.31218400
v 0.08750700 0.52795200 -0.30107400
v 0.12007600 0.50507200 -0.41140400
v 0.14768600 0.43990200 -0.50493400
v 0.16613700 0.34238200 -0.56743400
v 0.17261600 0.22734200 -0.58938400
v 0.17261600 -0.37386800 -0.58938400
v 0.16613700 -0.48890800 -0.56743400
v 0.14768600 -0.58642800 -0.50493400
v 0.12007600 -0.65158800 -0.41140400
v 0.13627600 0.52795200 -0.28191400
v 0.18750600 0.50507200 -0.38491400
v 0.23094600 0.43990200 -0.47223400
v 0.25996600 0.34238200 -0.53057400
v 0.27015600 0.22734200 -0.55106400
v 0.27015600 -0.37386800 -0.55106400
v 0.25996600 -0.48890800 -0.53057400
v 0.23094600 -0.58642800 -0.47223400
v 0.18750600 -0.65158800 -0.38491400
v 0.15215600 -0.67447800 -0.27341400
v 0.24931600 0.50507200 -0.34711400
v 0.30725600 0.43990200 -0.42556400
v 0.34596600 0.34238200 -0.47797400
v 0.35956600 0.22734200 -0.49638400
v 0.35956600 -0.37386800 -0.49638400
v 0.34596600 -0.48890800 -0.47797400
v 0.30725600 -0.58642800 -0.42556400
v 0.24931600 -0.65158800 -0.34711400
v 0.22025600 0.52795200 -0.21989400
v 0.30362600 0.50507200 -0.29915400
v 0.37430600 0.43990200 -0.36635400
v 0.42153600 0.34238200 -0.41125400
v 0.43811600 0.22734200 -0.42701400
v 0.43811600 -0.37386800 -0.42701400
v 0.42153600 -0.48890800 -0.41125400
v 0.37430600 -0.58642800 -0.36635400
v 0.30362600 -0.65158800 -0.29915400
v 0.23036600 -0.67447800 -0.20870400
v -0.37862300 0.50507200 0.15331600
v -0.46802400 0.43990200 0.19228600
v -0.47957300 0.34238200 0.30687600
v -0.52776400 0.34238200 0.21832600
v -0.49864400 0.22734200 0.31951600
v -0.54873300 0.22734200 0.22746600
v -0.49864400 -0.37386800 0.31951600
v -0.54873300 -0.37386800 0.22746600
v -0.47957300 -0.48890800 0.30687600
v -0.52776400 -0.48890800 0.21832600
v -0.46802400 -0.58642800 0.19228600
v -0.34399400 -0.65158800 0.21695600
v -0.37862300 -0.65158800 0.15331600
v -0.28984400 0.52795200 0.05767600
v -0.40167400 0.50507200 0.08462600
v -0.49648400 0.43990200 0.10748600
v -0.55983400 0.34238200 0.12275600
v -0.58208400 0.22734200 0.12811600
v -0.58208400 -0.37386800 0.12811600
v -0.55983400 -0.48890800 0.12275600
v -0.49648400 -0.58642800 0.10748600
v -0.40167400 -0.65158800 0.08462600
v -0.29763400 0.52795200 0.00585600
v -0.41245400 0.50507200 0.01298600
v -0.50979400 0.43990200 0.01902600
v -0.57482400 0.34238200 0.02306600
v -0.59766400 0.22734200 0.02448600
v -0.59766400 -0.37386800 0.02448600
v -0.57482400 -0.48890800 0.02306600
v -0.50979400 -0.58642800 0.01902600
v -0.41245400 -0.65158800 0.01298600
v -0.29631400 0.52795200 -0.04652400
v -0.41062400 0.50507200 -0.05944400
v -0.50753400 0.43990200 -0.07039400
v -0.57228400 0.34238200 -0.07771400
v -0.59501400 0.22734200 -0.08028400
v -0.59501400 -0.37386800 -0.08028400
v -0.57228400 -0.48890800 -0.07771400
v -0.50753400 -0.58642800 -0.07039400
v -0.41062400 -0.65158800 -0.05944400
v -0.28591300 0.52795200 -0.09788400
v -0.39624400 0.50507200 -0.13045400
v -0.48977400 0.43990200 -0.15806400
v -0.55227400 0.34238200 -0.17651400
v -0.57421400 0.22734200 -0.18299400
v -0.57421400 -0.37386800 -0.18299400
v -0.55227400 -0.48890800 -0.17651400
v -0.48977400 -0.58642800 -0.15806400
v -0.39624400 -0.65158800 -0.13045400
v -0.28384400 -0.67447800 -0.10460400
v -0.26675400 0.52795200 -0.14665400
v -0.36975400 0.50507200 -0.19788400
v -0.45706400 0.43990200 -0.24132400
v -0.51541400 0.34238200 -0.27034400
v -0.53590400 0.22734200 -0.28053400
v -0.53590400 -0.37386800 -0.28053400
v -0.51541400 -0.48890800 -0.27034400
v -0.45706400 -0.58642800 -0.24132400
v -0.36975400 -0.65158800 -0.19788400
v -0.25824400 -0.67447800 -0.16253400
v -0.23941300 0.52795200 -0.19135400
v -0.33195400 0.50507200 -0.25969400
v -0.41040300 0.43990200 -0.31763400
v -0.46281400 0.34238200 -0.35634400
v -0.48122400 0.22734200 -0.36994400
v -0.48122400 -0.37386800 -0.36994400
v -0.46281400 -0.48890800 -0.35634400
v -0.41040300 -0.58642800 -0.31763400
v -0.33195400 -0.65158800 -0.25969400
v -0.28399300 0.50507200 -0.31400400
v -0.35119400 0.43990200 -0.38468400
v -0.39608400 0.34238200 -0.43191400
v -0.41185400 0.22734200 -0.44849400
v -0.41185400 -0.37386800 -0.44849400
v -0.39608400 -0.48890800 -0.43191400
v -0.35119400 -0.58642800 -0.38468400
v -0.28399300 -0.65158800 -0.31400400
v -0.27317400 0.52795200 0.10734600
v -0.24812400 0.52795200 0.15337600
v -0.20473400 0.52795200 -0.23063400
v -0.14737400 0.52795200 0.24786600
v -0.08944400 0.52795200 0.27346600
v -0.02437400 0.52795200 0.28664600
v 0.18097600 0.52795200 -0.25457400
v 0.16853600 0.52795200 0.23774600
v 0.24419600 0.52795200 0.16581600
v 0.30241600 0.52795200 -0.03139400
v 0.29462600 0.52795200 -0.08321400
v 0.27795600 0.52795200 -0.13288400
v 0.13617600 0.52795200 0.25642600
v 0.16847600 0.50507200 0.36824600
v 0.20744600 0.43990200 0.45764600
v 0.23348600 0.34238200 0.51738600
v 0.24262600 0.22734200 0.53835600
v 0.24262600 -0.37386800 0.53835600
v 0.23348600 -0.48890800 0.51738600
v 0.20744600 -0.58642800 0.45764600
v 0.23211600 -0.65158800 0.33361600
v 0.16847600 -0.65158800 0.36824600
v 0.09331600 0.52795200 0.27375600
v 0.09979700 0.50507200 0.39129600
v 0.12264600 0.43990200 0.48610600
v 0.13791600 0.34238200 0.54945600
v 0.14327600 0.22734200 0.57170600
v 0.14327600 -0.37386800 0.57170600
v 0.13791600 -0.48890800 0.54945600
v 0.12264600 -0.58642800 0.48610600
v 0.09979700 -0.65158800 0.39129600
v 0.03895600 0.52795200 0.28560600
v 0.02814700 0.50507200 0.40207600
v 0.03418600 0.43990200 0.49941600
v 0.03822600 0.34238200 0.56444600
v 0.03964600 0.22734200 0.58728600
v 0.03964600 -0.37386800 0.58728600
v 0.03822600 -0.48890800 0.56444600
v 0.03418600 -0.58642800 0.49941600
v 0.02814700 -0.65158800 0.40207600
v -0.04428400 0.50507200 0.40024600
v -0.05523300 0.43990200 0.49715600
v -0.06255400 0.34238200 0.56190600
v -0.06512400 0.22734200 0.58463600
v -0.06512400 -0.37386800 0.58463600
v -0.06255400 -0.48890800 0.56190600
v -0.05523300 -0.58642800 0.49715600
v -0.04428400 -0.65158800 0.40024600
v -0.02437400 -0.67447800 0.28664600
v -0.11529400 0.50507200 0.38586600
v -0.14290400 0.43990200 0.47939600
v -0.16135400 0.34238200 0.54189600
v -0.16783400 0.22734200 0.56384600
v -0.16783400 -0.37386800 0.56384600
v -0.16135400 -0.48890800 0.54189600
v -0.14290400 -0.58642800 0.47939600
v -0.11529400 -0.65158800 0.38586600
v -0.18272400 0.50507200 0.35937600
v -0.22616400 0.43990200 0.44668600
v -0.25518400 0.34238200 0.50503600
v -0.26537300 0.22734200 0.52552600
v -0.26537300 -0.37386800 0.52552600
v -0.25518400 -0.48890800 0.50503600
v -0.22616400 -0.58642800 0.44668600
v -0.18272400 -0.65158800 0.35937600
v -0.19284400 0.52795200 0.21580600
v -0.24453400 0.50507200 0.32157600
v -0.30247400 0.43990200 0.40002600
v -0.34118400 0.34238200 0.45243600
v -0.35478400 0.22734200 0.47084600
v -0.35478400 -0.37386800 0.47084600
v -0.34118400 -0.48890800 0.45243600
v -0.30247400 -0.58642800 0.40002600
v -0.24453400 -0.65158800 0.32157600
v -0.22558400 0.52795200 0.18316600
v -0.29884400 0.50507200 0.27361600
v -0.36952400 0.43990200 0.34081600
v -0.41675400 0.34238200 0.38570600
v -0.43333400 0.22734200 0.40147600
v -0.43333400 -0.37386800 0.40147600
v -0.41675400 -0.48890800 0.38570600
v -0.36952400 -0.58642800 0.34081600
v -0.29884400 -0.65158800 0.27361600
v -0.22558400 -0.67447800 0.18316600
v -0.34399400 0.50507200 0.21695600
v -0.42527400 0.43990200 0.27085600
v -0.42527400 -0.58642800 0.27085600
f 50 49 60
f 50 41 49
f 49 41 40
f 60 49 59
f 59 68 60
f 38 48 39
f 190 191 182
f 173 172 182
f 24 23 32
f 32 23 31
f 31 40 32
f 32 40 41
f 33 32 41
f 24 32 33
f 193 10 12
f 326 317 316
f 309 308 316
f 316 317 309
f 335 336 327
f 344 336 335
f 74 73 83
f 203 205 353
f 343 351 352
f 352 351 199
f 147 146 155
f 126 125 127
f 263 262 271
f 129 126 127
f 60 68 69
f 68 78 69
f 86 78 77
f 77 78 68
f 85 76 75
f 75 76 67
f 67 66 75
f 75 74 83
f 190 182 181
f 181 182 172
f 21 7 20
f 7 6 4
f 190 189 4
f 4 6 190
f 81 111 71
f 63 53 62
f 62 71 63
f 71 111 63
f 165 174 175
f 175 174 183
f 164 172 173
f 153 164 154
f 153 143 152
f 13 23 24
f 11 23 13
f 13 10 11
f 12 10 13
f 194 193 14
f 14 193 12
f 14 15 17
f 12 13 14
f 14 13 15
f 24 33 25
f 25 13 24
f 15 13 25
f 192 193 183
f 10 193 192
f 214 222 223
f 213 222 214
f 234 224 233
f 333 334 326
f 343 334 333
f 319 318 327
f 344 353 354
f 353 205 354
f 354 205 355
f 355 346 354
f 201 352 199
f 347 356 95
f 338 346 347
f 347 346 355
f 355 356 347
f 271 262 270
f 258 266 267
f 267 266 116
f 267 116 118
f 118 268 267
f 125 126 124
f 271 270 124
f 124 272 271
f 124 126 272
f 137 125 123
f 137 138 125
f 137 146 147
f 147 138 137
f 149 159 104
f 158 159 149
f 265 272 273
f 272 126 273
f 195 186 194
f 194 14 195
f 177 186 178
f 87 78 86
f 86 292 87
f 180 181 172
f 180 189 190
f 190 181 180
f 20 7 5
f 7 4 5
f 5 19 20
f 8 191 190
f 190 6 8
f 8 6 7
f 7 9 8
f 7 21 22
f 22 9 7
f 156 155 165
f 147 155 156
f 183 193 184
f 184 175 183
f 186 177 176
f 163 153 152
f 172 164 163
f 164 153 163
f 144 154 145
f 144 153 154
f 145 136 144
f 144 136 135
f 144 135 143
f 143 153 144
f 110 34 43
f 53 110 43
f 43 34 33
f 61 50 60
f 61 51 50
f 61 71 62
f 41 50 42
f 50 51 42
f 42 33 41
f 42 43 33
f 33 34 26
f 26 25 33
f 17 15 26
f 15 25 26
f 26 108 107
f 107 17 26
f 239 248 249
f 249 250 239
f 258 248 247
f 231 232 223
f 223 222 231
f 241 232 231
f 202 201 200
f 200 201 199
f 200 214 202
f 213 214 200
f 221 222 213
f 230 231 221
f 221 231 222
f 199 351 350
f 255 256 246
f 265 256 255
f 271 272 264
f 264 263 271
f 264 272 265
f 265 255 264
f 264 255 254
f 263 264 253
f 253 264 254
f 253 252 262
f 262 263 253
f 234 233 242
f 83 73 82
f 72 281 82
f 73 72 82
f 288 297 298
f 288 289 83
f 298 289 288
f 305 297 296
f 299 289 298
f 85 289 290
f 85 75 84
f 84 289 85
f 84 75 83
f 83 289 84
f 326 316 325
f 325 333 326
f 316 315 325
f 342 351 343
f 343 333 342
f 314 315 307
f 298 297 307
f 308 299 307
f 307 299 298
f 307 316 308
f 307 315 316
f 327 336 328
f 328 319 327
f 209 217 218
f 218 98 209
f 227 218 217
f 236 100 227
f 360 356 355
f 355 205 360
f 225 224 234
f 345 336 344
f 344 354 345
f 346 336 345
f 345 354 346
f 29 39 30
f 38 39 29
f 30 22 29
f 29 22 21
f 57 58 48
f 67 58 57
f 57 66 67
f 55 56 45
f 55 44 54
f 45 44 55
f 101 256 265
f 265 273 101
f 101 273 102
f 94 93 338
f 338 347 94
f 94 347 95
f 208 360 209
f 356 360 208
f 209 98 97
f 97 208 209
f 96 208 97
f 95 356 357
f 356 208 357
f 357 208 96
f 122 124 270
f 123 125 122
f 125 124 122
f 118 120 269
f 269 268 118
f 143 135 134
f 115 117 116
f 258 267 259
f 259 248 258
f 249 248 259
f 260 250 259
f 259 250 249
f 259 268 260
f 259 267 268
f 148 157 158
f 158 149 148
f 148 138 147
f 147 156 148
f 148 156 157
f 103 131 129
f 102 273 128
f 129 131 128
f 126 129 128
f 128 273 126
f 16 107 18
f 16 17 107
f 16 14 17
f 16 195 14
f 178 186 106
f 186 195 106
f 158 157 168
f 168 157 167
f 168 159 158
f 167 176 168
f 168 176 177
f 291 292 86
f 291 301 292
f 318 319 310
f 292 301 302
f 302 303 292
f 171 180 172
f 172 163 171
f 151 150 160
f 142 150 151
f 152 143 151
f 143 142 151
f 35 44 36
f 36 44 45
f 45 37 36
f 19 5 3
f 3 4 1
f 3 5 4
f 20 19 28
f 28 36 37
f 28 21 20
f 28 29 21
f 28 37 38
f 38 29 28
f 165 175 166
f 166 156 165
f 166 176 167
f 175 176 166
f 167 157 166
f 157 156 166
f 185 193 194
f 185 184 193
f 194 186 185
f 186 176 185
f 175 184 185
f 185 176 175
f 62 53 52
f 53 43 52
f 52 61 62
f 51 61 52
f 52 42 51
f 43 42 52
f 109 34 110
f 109 26 34
f 108 26 109
f 276 266 258
f 240 239 250
f 241 231 240
f 230 239 240
f 240 231 230
f 240 251 241
f 240 250 251
f 212 221 213
f 213 200 212
f 212 200 198
f 198 197 212
f 220 221 212
f 314 279 323
f 323 315 314
f 278 323 279
f 331 323 278
f 142 132 141
f 141 150 142
f 245 255 246
f 246 100 245
f 245 100 236
f 245 236 235
f 243 242 252
f 252 253 243
f 234 242 243
f 243 235 234
f 286 82 281
f 83 82 287
f 287 288 83
f 297 288 287
f 82 286 287
f 287 286 296
f 296 297 287
f 289 299 300
f 300 290 289
f 300 308 309
f 300 299 308
f 340 350 341
f 341 333 332
f 341 342 333
f 341 350 351
f 351 342 341
f 332 331 341
f 341 331 340
f 314 307 306
f 306 307 297
f 297 305 306
f 306 305 279
f 306 279 314
f 329 328 336
f 322 92 313
f 71 61 70
f 70 69 78
f 60 69 70
f 70 61 60
f 88 87 292
f 78 87 88
f 235 236 226
f 236 227 226
f 226 227 217
f 234 235 226
f 226 225 234
f 99 227 100
f 98 218 99
f 218 227 99
f 207 217 209
f 209 360 207
f 224 225 215
f 46 37 45
f 45 56 46
f 66 57 65
f 57 56 65
f 65 75 66
f 74 75 65
f 261 250 260
f 251 250 261
f 260 268 261
f 268 269 261
f 136 121 119
f 135 136 119
f 119 121 120
f 119 120 118
f 118 116 119
f 116 117 119
f 119 134 135
f 117 134 119
f 133 142 143
f 143 134 133
f 133 132 142
f 133 134 117
f 117 115 133
f 133 114 132
f 133 115 114
f 113 114 112
f 114 115 112
f 112 276 113
f 266 276 112
f 116 266 112
f 112 115 116
f 138 148 139
f 127 125 139
f 125 138 139
f 102 128 130
f 130 128 131
f 196 106 195
f 196 16 18
f 195 16 196
f 159 168 105
f 105 177 178
f 105 168 177
f 301 310 311
f 311 302 301
f 311 310 319
f 162 163 152
f 162 171 163
f 160 170 161
f 161 151 160
f 170 171 161
f 171 162 161
f 152 151 161
f 161 162 152
f 169 170 160
f 188 4 189
f 1 4 188
f 35 36 27
f 27 28 19
f 36 28 27
f 1 2 285
f 285 3 1
f 285 284 19
f 19 3 285
f 210 220 211
f 211 197 210
f 220 212 211
f 211 212 197
f 359 197 198
f 199 350 359
f 359 200 199
f 198 200 359
f 219 220 210
f 219 228 220
f 220 228 229
f 230 221 229
f 229 221 220
f 258 247 257
f 257 276 258
f 315 323 324
f 324 325 315
f 324 331 332
f 324 323 331
f 332 333 324
f 333 325 324
f 331 278 277
f 277 339 340
f 340 331 277
f 244 245 235
f 235 243 244
f 254 255 244
f 255 245 244
f 244 253 254
f 244 243 253
f 337 346 338
f 338 329 337
f 337 336 346
f 337 329 336
f 319 328 320
f 328 329 320
f 322 313 321
f 304 313 92
f 292 303 293
f 293 88 292
f 303 304 293
f 79 70 78
f 78 88 79
f 71 70 79
f 206 360 205
f 206 207 360
f 217 207 206
f 204 215 206
f 206 203 204
f 205 203 206
f 47 56 57
f 47 46 56
f 47 48 38
f 47 57 48
f 38 37 47
f 37 46 47
f 56 55 64
f 64 65 56
f 73 74 64
f 74 65 64
f 64 282 72
f 64 72 73
f 54 282 64
f 64 55 54
f 140 148 149
f 140 139 148
f 140 103 129
f 140 129 127
f 127 139 140
f 104 103 140
f 140 149 104
f 187 2 1
f 1 188 187
f 179 169 280
f 170 169 179
f 280 187 179
f 179 187 188
f 180 171 179
f 179 171 170
f 189 180 179
f 179 188 189
f 35 27 283
f 19 284 283
f 283 27 19
f 210 197 274
f 340 339 349
f 349 350 340
f 349 359 350
f 238 229 228
f 238 247 248
f 248 239 238
f 238 239 230
f 230 229 238
f 312 304 303
f 313 304 312
f 312 321 313
f 320 321 312
f 303 302 312
f 302 311 312
f 312 311 319
f 319 320 312
f 330 93 322
f 322 321 330
f 338 93 330
f 330 329 338
f 330 320 329
f 330 321 320
f 91 304 92
f 90 89 294
f 294 89 81
f 216 215 225
f 216 206 215
f 217 206 216
f 216 226 217
f 225 226 216
f 348 349 339
f 275 274 358
f 358 274 197
f 197 359 358
f 359 349 358
f 358 348 275
f 349 348 358
f 247 238 237
f 237 238 228
f 90 294 295
f 295 91 90
f 304 91 295
f 295 293 304
f 88 293 295
f 295 294 88
f 80 81 71
f 80 294 81
f 71 79 80
f 80 79 88
f 88 294 80
f 39 40 31
f 39 31 30
f 39 48 49
f 49 40 39
f 173 182 174
f 174 182 183
f 327 318 317
f 317 326 327
f 327 326 335
f 326 334 335
f 343 344 335
f 335 334 343
f 68 59 58
f 67 68 58
f 49 48 58
f 58 59 49
f 352 344 343
f 352 353 344
f 145 154 155
f 155 146 145
f 77 76 85
f 77 85 86
f 77 68 67
f 67 76 77
f 173 174 164
f 164 174 165
f 164 155 154
f 165 155 164
f 183 182 192
f 192 182 191
f 223 232 233
f 233 224 223
f 204 203 201
f 201 202 204
f 353 352 201
f 201 203 353
f 145 146 137
f 137 136 145
f 8 192 191
f 10 192 8
f 11 10 8
f 8 9 11
f 30 31 22
f 31 23 22
f 11 9 22
f 22 23 11
f 251 252 242
f 241 251 242
f 242 233 232
f 242 232 241
f 269 122 270
f 120 122 269
f 121 122 120
f 123 122 121
f 136 137 121
f 121 137 123
f 86 85 291
f 85 290 291
f 310 317 318
f 309 317 310
f 309 310 300
f 300 310 301
f 300 291 290
f 301 291 300
f 204 202 215
f 202 214 215
f 223 224 215
f 215 214 223
f 261 252 251
f 262 252 261
f 261 269 270
f 261 270 262
f 107 108 91
f 18 107 91
f 53 63 91
f 91 103 104
f 91 110 53
f 246 256 91
f 95 357 91
f 91 89 90
f 104 159 91
f 91 105 178
f 91 101 102
f 91 97 98
f 111 81 91
f 91 63 111
f 91 100 246
f 91 92 322
f 322 93 91
f 91 94 95
f 91 196 18
f 98 99 91
f 81 89 91
f 102 130 91
f 91 109 110
f 256 101 91
f 93 94 91
f 96 97 91
f 91 357 96
f 131 103 91
f 178 106 91
f 108 109 91
f 91 99 100
f 91 130 131
f 106 196 91
f 159 105 91
f 72 282 237
f 237 281 72
f 237 114 113
f 2 187 237
f 113 276 237
f 279 305 237
f 160 150 237
f 296 286 237
f 237 141 132
f 237 44 35
f 35 283 237
f 237 285 2
f 237 278 279
f 132 114 237
f 237 305 296
f 54 44 237
f 339 277 237
f 237 169 160
f 237 348 339
f 237 219 210
f 237 257 247
f 150 141 237
f 237 286 281
f 237 282 54
f 280 169 237
f 284 285 237
f 210 274 237
f 228 219 237
f 276 257 237
f 237 277 278
f 237 187 280
f 237 283 284
f 237 274 275
f 275 348 237

